0
SECTION
2
HEADER
9
$INSUNITS
70
4
9
$ACADVER
1
AC1014
9
$HANDSEED
5
FFFF
0
ENDSEC
0
SECTION
2
TABLES
0
TABLE
2
VPORT
5
8
100
AcDbSymbolTable
0
ENDTAB
0
TABLE
2
LTYPE
5
5
100
AcDbSymbolTable
0
LTYPE
5
14
100
AcDbSymbolTableRecord
100
AcDbLinetypeTableRecord
2
BYBLOCK
70
0
0
LTYPE
5
15
100
AcDbSymbolTableRecord
100
AcDbLinetypeTableRecord
2
BYLAYER
70
0
0
LTYPE
5
16
100
AcDbSymbolTableRecord
100
AcDbLinetypeTableRecord
2
DASHED
70
0
3
Dashed __ __ __ __ __ __ __ __ __ __ __ __ __ _
72
65
73
2
40
0.75
49
0.5
74
0
49
-0.25
74
0
0
ENDTAB
0
TABLE
2
LAYER
5
2
100
AcDbSymbolTable
70
3
0
LAYER
5
50
100
AcDbSymbolTableRecord
100
AcDbLayerTableRecord
2
1
70
0
62
7
6
DASHED
0
LAYER
5
51
100
AcDbSymbolTableRecord
100
AcDbLayerTableRecord
2
0
70
0
62
7
6
CONTINUOUS
0
ENDTAB
0
TABLE
2
STYLE
5
3
100
AcDbSymbolTable
70
1
0
STYLE
5
11
100
AcDbSymbolTableRecord
100
AcDbTextStyleTableRecord
2
STANDARD
70
0
0
ENDTAB
0
TABLE
2
VIEW
5
6
100
AcDbSymbolTable
70
0
0
ENDTAB
0
TABLE
2
UCS
5
7
100
AcDbSymbolTable
70
0
0
ENDTAB
0
TABLE
2
APPID
5
9
100
AcDbSymbolTable
70
2
0
APPID
5
12
100
AcDbSymbolTableRecord
100
AcDbRegAppTableRecord
2
ACAD
70
0
0
ENDTAB
0
TABLE
2
DIMSTYLE
5
A
100
AcDbSymbolTable
70
1
0
ENDTAB
0
TABLE
2
BLOCK_RECORD
5
1
100
AcDbSymbolTable
70
1
0
BLOCK_RECORD
5
1F
100
AcDbSymbolTableRecord
100
AcDbBlockTableRecord
2
*MODEL_SPACE
0
BLOCK_RECORD
5
1B
100
AcDbSymbolTableRecord
100
AcDbBlockTableRecord
2
*PAPER_SPACE
0
ENDTAB
0
ENDSEC
0
SECTION
2
BLOCKS
0
BLOCK
5
20
100
AcDbEntity
100
AcDbBlockBegin
2
*MODEL_SPACE
0
ENDBLK
5
21
100
AcDbEntity
100
AcDbBlockEnd
0
BLOCK
5
1C
100
AcDbEntity
100
AcDbBlockBegin
2
*PAPER_SPACE
0
ENDBLK
5
1D
100
AcDbEntity
100
AcDbBlockEnd
0
ENDSEC
0
SECTION
2
ENTITIES
0
SPLINE
5
100
100
AcDbEntity
8
0
100
AcDbSpline
70
0
71
3
72
9
73
5
74
0
42
0.000000001
43
0.0000000001
44
0.0000000001
40
0
40
0
40
0
40
0
40
0.040923643368844194
40
0.079272889531206731
40
0.079272889531206731
40
0.079272889531206731
40
0.079272889531206731
10
40.969878261879643
20
40.581481756711462
30
-8.8817841970012523e-15
10
40.979645367601861
20
40.442075001650068
30
-8.8817841970012523e-15
10
40.998565156487189
20
40.172031198504747
30
-8.8817841970012523e-15
10
41.162164877734995
20
39.95695575990343
30
-8.8817841970012523e-15
10
41.241308277443608
20
39.852910341763952
30
-8.8817841970012523e-15
0
SPLINE
5
101
100
AcDbEntity
8
0
100
AcDbSpline
70
0
71
3
72
9
73
5
74
0
42
0.000000001
43
0.0000000001
44
0.0000000001
40
0
40
0
40
0
40
0
40
0.039227067745282493
40
0.084085186742177714
40
0.084085186742177714
40
0.084085186742177714
40
0.084085186742177714
10
41.241308277443608
20
39.852910341763952
30
-8.8817841970012523e-15
10
41.346267624299443
20
39.769677060646401
30
-8.8817841970012523e-15
10
41.571253247441511
20
39.59126234886169
30
-8.8817841970012523e-15
10
41.859148083996828
20
39.57556810711408
30
-8.8817841970012523e-15
10
42.012735431984638
20
39.567195477033124
30
-8.8817841970012523e-15
0
LINE
5
102
100
AcDbEntity
8
0
100
AcDbLine
10
42.012735431984638
20
39.567195477033124
30
-8.8817841970012523e-15
11
51.769883286149394
21
39.567195477033138
31
-8.8817841970012523e-15
0
LINE
5
103
100
AcDbEntity
8
0
100
AcDbLine
10
51.769883286149394
20
39.567195477033138
30
-8.8817841970012523e-15
11
51.769877498940232
21
38.538624348187945
31
-8.8817841347043844e-15
0
SPLINE
5
104
100
AcDbEntity
8
0
100
AcDbSpline
70
0
71
3
72
9
73
5
74
0
42
0.000000001
43
0.0000000001
44
0.0000000001
40
0
40
0
40
0
40
0
40
0.057632376540307458
40
0.10743360433686659
40
0.10743360433686659
40
0.10743360433686659
40
0.10743360433686659
10
51.769877498940232
20
38.538624348187945
30
-8.8817841970012523e-15
10
51.760047893041573
20
38.341601586774942
30
-8.8817841970012523e-15
10
51.741724338569256
20
37.974327726739077
30
-8.8817841970012523e-15
10
51.521816766584166
20
37.681506187889099
30
-8.8817841970012523e-15
10
51.419877832726222
20
37.545767726445696
30
-8.8817841970012523e-15
0
SPLINE
5
105
100
AcDbEntity
8
0
100
AcDbSpline
70
0
71
3
72
9
73
5
74
0
42
0.000000001
43
0.0000000001
44
0.0000000001
40
0
40
0
40
0
40
0
40
0.049801177144182175
40
0.10743368056126926
40
0.10743368056126926
40
0.10743368056126926
40
0.10743368056126926
10
51.419877832726222
20
37.545767726445696
30
-8.8817841970012523e-15
10
51.284139563990472
20
37.443828838508871
30
-8.8817841970012523e-15
10
50.991317935275262
20
37.223920985895859
30
-8.8817841970012523e-15
10
50.624043811686796
20
37.205597205790006
30
-8.8817841970012523e-15
10
50.427020614937526
20
37.195767464185259
30
-8.8817841970012523e-15
0
LINE
5
106
100
AcDbEntity
8
0
100
AcDbLine
10
50.427020614937533
20
37.195767464185259
30
-8.8817841970012523e-15
11
41.255594318703366
21
37.195767464185231
31
-8.8817841970012523e-15
0
SPLINE
5
107
100
AcDbEntity
8
0
100
AcDbSpline
70
0
71
3
72
9
73
5
74
0
42
0.000000001
43
0.0000000001
44
0.0000000001
40
0
40
0
40
0
40
0
40
0.12914325329907075
40
0.24147342272956171
40
0.24147342272956171
40
0.24147342272956171
40
0.24147342272956171
10
41.255594318703359
20
37.195767464185224
30
-8.8817841970012523e-15
10
40.813201641646316
20
37.219391248315276
30
-8.8817841970012523e-15
10
39.986011128859204
20
37.263563250072863
30
-8.8817841970012523e-15
10
39.341243012163218
20
37.777923110660559
30
-8.8817841970012523e-15
10
39.041305607155522
20
38.017196359181867
30
-8.8817841970012523e-15
0
SPLINE
5
108
100
AcDbEntity
8
0
100
AcDbSpline
70
0
71
3
72
9
73
5
74
0
42
0.000000001
43
0.0000000001
44
0.0000000001
40
0
40
0
40
0
40
0
40
0.1104698209461057
40
0.23007076538316401
40
0.23007076538316401
40
0.23007076538316401
40
0.23007076538316401
10
39.041305607155522
20
38.017196359181867
30
-8.8817841970012523e-15
10
38.816403415280895
20
38.318949131686431
30
-8.8817841970012523e-15
10
38.348009251356331
20
38.947396708880305
30
-8.8817841970012523e-15
10
38.296602139594938
20
39.731180024760519
30
-8.8817841970012523e-15
10
38.269878452614506
20
40.138625206494766
30
-8.8817841970012523e-15
0
SPLINE
5
109
100
AcDbEntity
8
0
100
AcDbSpline
70
0
71
3
72
9
73
5
74
0
42
0.000000001
43
0.0000000001
44
0.0000000001
40
0
40
0
40
0
40
0
40
0.16351130208157882
40
0.31051972955012141
40
0.31051972955012141
40
0.31051972955012141
40
0.31051972955012141
10
38.269878452614506
20
40.138625206494766
30
-8.8817841970012523e-15
10
38.315224392654834
20
40.711516687605595
30
-8.8817841970012523e-15
10
38.401339596058307
20
41.799478837692028
30
-8.8817841970012523e-15
10
39.271978964653826
20
42.446562890975798
30
-8.8817841970012523e-15
10
39.684163158730229
20
42.75290996029419
30
-8.8817841970012523e-15
0
SPLINE
5
110
100
AcDbEntity
8
0
100
AcDbSpline
70
0
71
3
72
9
73
5
74
0
42
0.000000001
43
0.0000000001
44
0.0000000001
40
0
40
0
40
0
40
0
40
0.072013604047255528
40
0.14312908996483859
40
0.14312908996483859
40
0.14312908996483859
40
0.14312908996483859
10
39.684163158730229
20
42.75290996029419
30
-8.8817841970012523e-15
10
39.473248306897858
20
42.874268901227083
30
-8.8817841970012523e-15
10
39.05404902917487
20
43.11547325427437
30
-8.8817841970012523e-15
10
38.778310259407306
20
43.512690760416397
30
-8.8817841970012523e-15
10
38.641305988625248
20
43.71005326702636
30
-8.8817841970012523e-15
0
SPLINE
5
111
100
AcDbEntity
8
0
100
AcDbSpline
70
0
71
3
72
9
73
5
74
0
42
0.000000001
43
0.0000000001
44
0.0000000001
40
0
40
0
40
0
40
0
40
0.07236259319301433
40
0.14758084915326064
40
0.14758084915326064
40
0.14758084915326064
40
0.14758084915326064
10
38.641305988625248
20
43.71005326702636
30
-8.8817841970012523e-15
10
38.53298432631923
20
43.928567092032004
30
-8.8817841970012523e-15
10
38.312066277374043
20
44.374218006725528
30
-8.8817841970012523e-15
10
38.284121304261298
20
44.871093959096399
30
-8.8817841970012523e-15
10
38.26987845261452
20
45.124339165234957
30
-8.8817841970012523e-15
0
LINE
5
112
100
AcDbEntity
8
0
100
AcDbLine
10
38.26987845261452
20
45.124339165234957
30
-8.8817841970012523e-15
11
38.26987845261452
21
45.85291058018246
31
-8.8817841970012523e-15
0
SPLINE
5
113
100
AcDbEntity
8
0
100
AcDbSpline
70
0
71
3
72
9
73
5
74
0
42
0.000000001
43
0.0000000001
44
0.0000000001
40
0
40
0
40
0
40
0
40
0.057632376540307458
40
0.10743359215474615
40
0.10743359215474615
40
0.10743359215474615
40
0.10743359215474615
10
38.26987845261452
20
45.85291058018246
30
-8.8817841970012523e-15
10
38.27970817301901
20
46.049933270022798
30
-8.8817841970012523e-15
10
38.298031938866039
20
46.417206954992807
30
-8.8817841970012523e-15
10
38.517938482807544
20
46.710029081793238
30
-8.8817841970012523e-15
10
38.619876926735614
20
46.845767797971156
30
-8.8817841970012523e-15
0
SPLINE
5
114
100
AcDbEntity
8
0
100
AcDbSpline
70
0
71
3
72
9
73
5
74
0
42
0.000000001
43
0.0000000001
44
0.0000000001
40
0
40
0
40
0
40
0
40
0.049801481058741229
40
0.10743397542641775
40
0.10743397542641775
40
0.10743397542641775
40
0.10743397542641775
10
38.619876926735614
20
46.845767797971156
30
-8.8817841970012523e-15
10
38.755616407905926
20
46.947706737619548
30
-8.8817841970012523e-15
10
39.048439668869747
20
47.167613963355741
30
-8.8817841970012523e-15
10
39.415714640705005
20
47.185937748434839
30
-8.8817841970012523e-15
10
39.612737720803004
20
47.195767464185145
30
-8.8817841970012523e-15
0
SPLINE
5
115
100
AcDbEntity
8
0
100
AcDbSpline
70
0
71
3
72
9
73
5
74
0
42
0.000000001
43
0.0000000001
44
0.0000000001
40
0
40
0
40
0
40
0
40
0.057632041157263753
40
0.1074334593817434
40
0.1074334593817434
40
0.1074334593817434
40
0.1074334593817434
10
39.612737720803004
20
47.195767464185145
30
-8.8817841970012523e-15
10
39.809759052356824
20
47.185936882656279
30
-8.8817841970012523e-15
10
40.177031888713053
20
47.167611427576581
30
-8.8817841970012523e-15
10
40.469854216951795
20
46.947706181139594
30
-8.8817841970012523e-15
10
40.605593746498805
20
46.845767797971163
30
-8.8817841970012523e-15
0
SPLINE
5
116
100
AcDbEntity
8
0
100
AcDbSpline
70
0
71
3
72
9
73
5
74
0
42
0.000000001
43
0.0000000001
44
0.0000000001
40
0
40
0
40
0
40
0
40
0.049801215614438704
40
0.10743359215474615
40
0.10743359215474615
40
0.10743359215474615
40
0.10743359215474615
10
40.605593746498805
20
46.845767797971163
30
-8.8817841970012523e-15
10
40.707532190426861
20
46.710029081793245
30
-8.8817841970012523e-15
10
40.92743873436838
20
46.417206954992814
30
-8.8817841970012523e-15
10
40.945762500215395
20
46.049933270022798
30
-8.8817841970012523e-15
10
40.955592220619899
20
45.852910580182481
30
-8.8817841970012523e-15
0
LINE
5
117
100
AcDbEntity
8
0
100
AcDbLine
10
40.955592220619899
20
45.852910580182481
30
-8.8817841970012523e-15
11
40.955592220619899
21
45.481481852078844
31
-8.8817841970012523e-15
0
SPLINE
5
118
100
AcDbEntity
8
0
100
AcDbSpline
70
0
71
3
72
9
73
5
74
0
42
0.000000001
43
0.0000000001
44
0.0000000001
40
0
40
0
40
0
40
0
40
0.06359249789167605
40
0.12012608628044674
40
0.12012608628044674
40
0.12012608628044674
40
0.12012608628044674
10
40.955592220619899
20
45.481481852078851
30
-8.8817841970012523e-15
10
40.967532279119787
20
45.264704660809969
30
-8.8817841970012523e-15
10
40.990087022919823
20
44.855213031367221
30
-8.8817841970012523e-15
10
41.228910834547605
20
44.52336810956573
30
-8.8817841970012523e-15
10
41.341305797890406
20
44.367195667767938
30
-8.8817841970012523e-15
0
SPLINE
5
119
100
AcDbEntity
8
0
100
AcDbSpline
70
0
71
3
72
9
73
5
74
0
42
0.000000001
43
0.0000000001
44
0.0000000001
40
0
40
0
40
0
40
0
40
0.05765962578082879
40
0.12700896070340947
40
0.12700896070340947
40
0.12700896070340947
40
0.12700896070340947
10
41.341305797890406
20
44.367195667767938
30
-8.8817841970012523e-15
10
41.496824050553592
20
44.246630155776792
30
-8.8817841970012523e-15
10
41.839389777848474
20
43.981056105177281
30
-8.8817841970012523e-15
10
42.274926120755303
20
43.962850576647135
30
-8.8817841970012523e-15
10
42.512737339333285
20
43.952910007977913
30
-8.8817841970012523e-15
0
LINE
5
120
100
AcDbEntity
8
0
100
AcDbLine
10
42.512737339333299
20
43.95291000797792
30
-8.8817841970012523e-15
11
49.084163730934868
21
43.952910007977934
31
-8.8817841970012523e-15
0
LINE
5
121
100
AcDbEntity
8
0
100
AcDbLine
10
49.084163730934868
20
43.952910007977934
30
-8.8817841970012523e-15
11
49.084163730934876
21
45.852910580182503
31
-8.8817841970012539e-15
0
SPLINE
5
122
100
AcDbEntity
8
0
100
AcDbSpline
70
0
71
3
72
9
73
5
74
0
42
0.000000001
43
0.0000000001
44
0.0000000001
40
0
40
0
40
0
40
0
40
0.057632376540307458
40
0.10743371782398665
40
0.10743371782398665
40
0.10743371782398665
40
0.10743371782398665
10
49.084163730934868
20
45.852910580182495
30
-8.8817841970012523e-15
10
49.093993295810449
20
46.04993337216564
30
-8.8817841970012523e-15
10
49.112316793166755
20
46.417207677156469
30
-8.8817841970012523e-15
10
49.332225161580425
20
46.710029184977415
30
-8.8817841970012523e-15
10
49.434164589241753
20
46.845767797971192
30
-8.8817841970012523e-15
0
SPLINE
5
123
100
AcDbEntity
8
0
100
AcDbSpline
70
0
71
3
72
9
73
5
74
0
42
0.000000001
43
0.0000000001
44
0.0000000001
40
0
40
0
40
0
40
0
40
0.049801278448955912
40
0.10743353716189999
40
0.10743353716189999
40
0.10743353716189999
40
0.10743353716189999
10
49.434164589241753
20
46.845767797971192
30
-8.8817841970012523e-15
10
49.569903249813436
20
46.947706737658748
30
-8.8817841970012523e-15
10
49.862724737313677
20
47.167613961052517
30
-8.8817841970012523e-15
10
50.229998295216483
20
47.185937747691717
30
-8.8817841970012523e-15
10
50.427020614937561
20
47.195767464185181
30
-8.8817841970012523e-15
0
SPLINE
5
124
100
AcDbEntity
8
0
100
AcDbSpline
70
0
71
3
72
9
73
5
74
0
42
0.000000001
43
0.0000000001
44
0.0000000001
40
0
40
0
40
0
40
0
40
0.057632394639225815
40
0.10743361025366452
40
0.10743361025366452
40
0.10743361025366452
40
0.10743361025366452
10
50.427020614937561
20
47.195767464185181
30
-8.8817841970012523e-15
10
50.624043292066112
20
47.185937251178309
30
-8.8817841970012523e-15
10
50.991316899874093
20
47.167612569729584
30
-8.8817841970012523e-15
10
51.284139103707034
20
46.947706161716155
30
-8.8817841970012523e-15
10
51.419877832726257
20
46.845767797971192
30
-8.8817841970012523e-15
0
SPLINE
5
125
100
AcDbEntity
8
0
100
AcDbSpline
70
0
71
3
72
9
73
5
74
0
42
0.000000001
43
0.0000000001
44
0.0000000001
40
0
40
0
40
0
40
0
40
0.049801278448955912
40
0.10743365498926337
40
0.10743365498926337
40
0.10743365498926337
40
0.10743365498926337
10
51.419877832726257
20
46.845767797971192
30
-8.8817841970012523e-15
10
51.521816768520893
20
46.710029133385227
30
-8.8817841970012523e-15
10
51.741724224699141
20
46.417207316074283
30
-8.8817841970012523e-15
10
51.760047856300453
20
46.049933321094258
30
-8.8817841970012523e-15
10
51.769877498940247
20
45.852910580182503
30
-8.8817841970012523e-15
0
LINE
5
126
100
AcDbEntity
8
0
100
AcDbLine
10
51.769877498940247
20
45.852910580182503
30
-8.8817841970012523e-15
11
51.769877498940239
21
41.595768036389799
31
-8.8817842062771995e-15
0
LINE
5
127
100
AcDbEntity
8
0
100
AcDbLine
10
51.769877498940239
20
41.595768036389799
30
-8.8817842062771995e-15
11
42.012735431984638
21
41.595768036389778
31
-8.8817841375879408e-15
0
SPLINE
5
128
100
AcDbEntity
8
0
100
AcDbSpline
70
0
71
3
72
9
73
5
74
0
42
0.000000001
43
0.0000000001
44
0.0000000001
40
0
40
0
40
0
40
0
40
0.044858100014974048
40
0.084085232880887067
40
0.084085232880887067
40
0.084085232880887067
40
0.084085232880887067
10
42.012735431984638
20
41.595768036389785
30
-8.8817841970012523e-15
10
41.859148020199683
20
41.587395970482994
30
-8.8817841970012523e-15
10
41.571252784262384
20
41.57170277101109
30
-8.8817841970012523e-15
10
41.346267556498674
20
41.393287026884579
30
-8.8817841970012523e-15
10
41.241308277443608
20
41.31005317165895
30
-8.8817841970012523e-15
0
SPLINE
5
129
100
AcDbEntity
8
0
100
AcDbSpline
70
0
71
3
72
9
73
5
74
0
42
0.000000001
43
0.0000000001
44
0.0000000001
40
0
40
0
40
0
40
0
40
0.038349246162362544
40
0.079272889531206731
40
0.079272889531206731
40
0.079272889531206731
40
0.079272889531206731
10
41.241308277443608
20
41.31005317165895
30
-8.8817841970012523e-15
10
41.16216487773498
20
41.206007753519465
30
-8.8817841970012523e-15
10
40.998565156487189
20
40.990932314918147
30
-8.8817841970012523e-15
10
40.979645367601861
20
40.720888511772834
30
-8.8817841970012523e-15
10
40.969878261879643
20
40.581481756711462
30
-8.8817841970012523e-15
0
CIRCLE
5
130
100
AcDbEntity
8
0
100
AcDbCircle
10
-65.219178297263966
20
-14.877932635468378
30
-8.8817841970012523e-15
40
1.6000000000000045
210
-4.0516735914883318e-45
220
1.1832913578315189e-30
230
1
0
CIRCLE
5
131
100
AcDbEntity
8
0
100
AcDbCircle
10
-65.219178297263753
20
15.072067364531323
30
-8.8817841970012523e-15
40
1.6000000000000045
210
-4.0516735914883318e-45
220
1.1832913578315189e-30
230
1
0
CIRCLE
5
132
100
AcDbEntity
8
0
100
AcDbCircle
10
-41.269178297263934
20
-14.877932635468301
30
-8.8817841970012523e-15
40
1.6000000000000045
210
-4.0516735914883318e-45
220
1.1832913578315189e-30
230
1
0
CIRCLE
5
133
100
AcDbEntity
8
0
100
AcDbCircle
10
-41.26917829726375
20
15.072067364531399
30
-8.8817841970012523e-15
40
1.6000000000000045
210
-4.0516735914883318e-45
220
1.1832913578315189e-30
230
1
0
LWPOLYLINE
5
134
100
AcDbEntity
8
0
100
AcDbPolyline
90
4
70
1
43
0.0
10
-33.744178297265073
20
-50.852932635471362
10
-33.744178297265051
20
-44.852932635471383
10
-14.744178297264996
20
-44.852932635471319
10
-14.744178297265009
20
-50.852932635471291
0
LWPOLYLINE
5
135
100
AcDbEntity
8
0
100
AcDbPolyline
90
4
70
1
43
0.0
10
-14.744178297264636
20
51.047067364528537
10
-14.744178297264654
20
45.047067364528587
10
-33.74417829726471
20
45.047067364528523
10
-33.744178297264696
20
51.047067364528473
0
CIRCLE
5
136
100
AcDbEntity
8
0
100
AcDbCircle
10
-9.7441782972601079
20
-63.602932635462494
30
-8.8817841970012523e-15
40
6.7500000000000204
210
7.888609052210055e-31
220
1.1832913578315167e-30
230
1
0
CIRCLE
5
137
100
AcDbEntity
8
0
100
AcDbCircle
10
-9.7441782972599658
20
63.797067364536829
30
-8.8817841970012523e-15
40
6.7500000000000204
210
7.888609052210055e-31
220
1.1832913578315167e-30
230
1
0
CIRCLE
5
138
100
AcDbEntity
8
0
100
AcDbCircle
10
78.75582170273438
20
-19.902932635467291
30
-8.8817841970012523e-15
40
1.2500000000000036
210
-3.8135623164965428e-45
220
1.1832913578315189e-30
230
1
0
CIRCLE
5
139
100
AcDbEntity
8
0
100
AcDbCircle
10
8.7558217027364478
20
28.097067364530396
30
-8.8817841970012523e-15
40
1.2500000000000036
210
-3.8135623164965428e-45
220
1.1832913578315189e-30
230
1
0
CIRCLE
5
140
100
AcDbEntity
8
0
100
AcDbCircle
10
78.755821702734323
20
20.097067364530968
30
-8.8817841970012523e-15
40
1.2500000000000036
210
-3.8135623164965428e-45
220
1.1832913578315189e-30
230
1
0
CIRCLE
5
141
100
AcDbEntity
8
0
100
AcDbCircle
10
8.7558217027364478
20
-27.902932635467167
30
-8.8817841970012523e-15
40
1.2500000000000036
210
-3.8135623164965428e-45
220
1.1832913578315189e-30
230
1
0
CIRCLE
5
142
100
AcDbEntity
8
0
100
AcDbCircle
10
71.755821702736753
20
-8.6529326354681118
30
-8.8817841970012523e-15
40
1.0999999999999974
210
7.8886090522100427e-31
220
1.5777218104420231e-30
230
1
0
LWPOLYLINE
5
143
100
AcDbEntity
8
0
100
AcDbPolyline
90
8
70
1
43
0.0
10
78.255821702736853
20
15.897067364531717
10
78.255821702736768
20
-5.4029326354681135
42
-0.4142135623730957
10
77.255821702736782
20
-6.4029326354681082
10
66.255821702736739
20
-6.4029326354681597
42
-0.41421356237308982
10
65.255821702736739
20
-5.4029326354681633
10
65.255821702736824
20
15.897067364531674
42
-0.41421356237309631
10
66.255821702736824
20
16.897067364531672
10
77.255821702736881
20
16.897067364531694
42
-0.41421356237309176
0
CIRCLE
5
144
100
AcDbEntity
8
0
100
AcDbCircle
10
71.755821702736824
20
19.147067364531665
30
-8.8817841970012523e-15
40
1.0999999999999974
210
7.8886090522100427e-31
220
1.5777218104420231e-30
230
1
0
CIRCLE
5
145
100
AcDbEntity
8
0
100
AcDbCircle
10
-3.2441640047570983
20
-32.902946961688201
30
-8.8817841970012523e-15
40
1.6000000000000061
210
-5.7853989874911269e-45
220
1.5777218104420254e-30
230
1
0
CIRCLE
5
146
100
AcDbEntity
8
0
100
AcDbCircle
10
-3.2441640047569207
20
33.097053038311302
30
-8.8817841970012523e-15
40
1.6000000000000061
210
-5.7853989874911269e-45
220
1.5777218104420254e-30
230
1
0
CIRCLE
5
147
100
AcDbEntity
8
0
100
AcDbCircle
10
-49.244164004757145
20
-32.902946961688315
30
-8.8817841970012523e-15
40
1.6000000000000061
210
-5.7853989874911269e-45
220
1.5777218104420254e-30
230
1
0
CIRCLE
5
148
100
AcDbEntity
8
0
100
AcDbCircle
10
-49.244164004756968
20
33.097053038311152
30
-8.8817841970012523e-15
40
1.5999999999999883
210
-7.2317487343639089e-45
220
1.972152263052532e-30
230
1
0
CIRCLE
5
149
100
AcDbEntity
8
0
100
AcDbCircle
10
-40.744178297263772
20
-47.402932635468161
30
-8.8817841970012523e-15
40
1.6000000000000061
210
-3.813562328995642e-45
220
1.1832913578315189e-30
230
1
0
CIRCLE
5
150
100
AcDbEntity
8
0
100
AcDbCircle
10
-40.744178297263488
20
47.597067364531057
30
-8.8817841970012523e-15
40
1.6000000000000061
210
-3.813562328995642e-45
220
1.1832913578315189e-30
230
1
0
CIRCLE
5
151
100
AcDbEntity
8
0
100
AcDbCircle
10
72.7558217027415
20
32.597067364536628
30
-8.8817841970012523e-15
40
1.6000000000000016
210
-2.5907855950602771e-45
220
7.8886090522101268e-31
230
1
0
CIRCLE
5
152
100
AcDbEntity
8
0
100
AcDbCircle
10
72.755821702741301
20
-32.40293263546284
30
-8.8817841970012523e-15
40
1.6000000000000016
210
-2.5907855950602771e-45
220
7.8886090522101268e-31
230
1
0
LINE
5
153
100
AcDbEntity
8
0
100
AcDbLine
10
-57.587061392578427
20
-34.166459293891187
30
-8.8817841970012523e-15
11
-57.927329342578417
21
-34.166459293891187
31
-8.8817841970012523e-15
0
SPLINE
5
154
100
AcDbEntity
8
0
100
AcDbSpline
70
0
71
3
72
8
73
4
74
0
42
0.000000001
43
0.0000000001
44
0.0000000001
40
0
40
0
40
0
40
0
40
1
40
1
40
1
40
1
10
-57.927329342578417
20
-34.166459293891187
30
-8.8817841970012523e-15
10
-58.173519642578455
20
-34.166459293891201
30
-8.8817841970012523e-15
10
-58.372969242578456
20
-33.966863943891212
30
-8.8817841970012523e-15
10
-58.372969242578456
20
-33.720853843891234
30
-8.8817841970012523e-15
0
LINE
5
155
100
AcDbEntity
8
0
100
AcDbLine
10
-58.372969242578456
20
-33.720853843891241
30
-8.8817841970012523e-15
11
-58.372969242578435
21
-28.538675493891272
31
-8.8817841970012586e-15
0
SPLINE
5
156
100
AcDbEntity
8
0
100
AcDbSpline
70
0
71
3
72
8
73
4
74
0
42
0.000000001
43
0.0000000001
44
0.0000000001
40
0
40
0
40
0
40
0
40
1
40
1
40
1
40
1
10
-58.372969242578456
20
-28.538675493891269
30
-8.8817841970012523e-15
10
-58.372969242578456
20
-27.824980143891246
30
-8.8817841970012523e-15
10
-58.951443042578411
20
-27.246546093891265
30
-8.8817841970012523e-15
10
-59.665175492578449
20
-27.246546093891265
30
-8.8817841970012523e-15
0
LINE
5
157
100
AcDbEntity
8
0
100
AcDbLine
10
-59.665175492578449
20
-27.246546093891265
30
-8.8817841970012523e-15
11
-59.884166192578448
21
-27.246546093891265
31
-8.8817841970012523e-15
0
SPLINE
5
158
100
AcDbEntity
8
0
100
AcDbSpline
70
0
71
3
72
8
73
4
74
0
42
0.000000001
43
0.0000000001
44
0.0000000001
40
0
40
0
40
0
40
0
40
1
40
1
40
1
40
1
10
-59.884166192578448
20
-27.246546093891265
30
-8.8817841970012523e-15
10
-60.597972842578407
20
-27.246546093891268
30
-8.8817841970012523e-15
10
-61.176409542578448
20
-27.824980143891249
30
-8.8817841970012523e-15
10
-61.176409542578448
20
-28.538675493891272
30
-8.8817841970012523e-15
0
LINE
5
159
100
AcDbEntity
8
0
100
AcDbLine
10
-61.176409542578448
20
-28.538675493891272
30
-8.8817841970012523e-15
11
-61.176409542578469
21
-33.720853843891234
31
-8.881784197001246e-15
0
SPLINE
5
160
100
AcDbEntity
8
0
100
AcDbSpline
70
0
71
3
72
8
73
4
74
0
42
0.000000001
43
0.0000000001
44
0.0000000001
40
0
40
0
40
0
40
0
40
1
40
1
40
1
40
1
10
-61.176409542578448
20
-33.720853843891241
30
-8.8817841970012523e-15
10
-61.176409542578448
20
-33.966863943891219
30
-8.8817841970012523e-15
10
-61.375856492578443
20
-34.166459293891201
30
-8.8817841970012523e-15
10
-61.621938142578486
20
-34.166459293891201
30
-8.8817841970012523e-15
0
LINE
5
161
100
AcDbEntity
8
0
100
AcDbLine
10
-61.621938142578486
20
-34.166459293891208
30
-8.8817841970012523e-15
11
-61.962388942578471
21
-34.166459293891201
31
-8.8817841970012523e-15
0
SPLINE
5
162
100
AcDbEntity
8
0
100
AcDbSpline
70
0
71
3
72
8
73
4
74
0
42
0.000000001
43
0.0000000001
44
0.0000000001
40
0
40
0
40
0
40
0
40
1
40
1
40
1
40
1
10
-61.962388942578471
20
-34.166459293891201
30
-8.8817841970012523e-15
10
-62.044430292578468
20
-34.166459293891201
30
-8.8817841970012523e-15
10
-62.110900242578481
20
-34.099989343891238
30
-8.8817841970012523e-15
10
-62.110900242578481
20
-34.017876443891211
30
-8.8817841970012523e-15
0
LINE
5
163
100
AcDbEntity
8
0
100
AcDbLine
10
-62.110900242578481
20
-34.017876443891211
30
-8.8817841970012523e-15
11
-62.11090024257846
21
-28.609454343891272
31
-8.8817841970012618e-15
0
SPLINE
5
164
100
AcDbEntity
8
0
100
AcDbSpline
70
0
71
3
72
8
73
4
74
0
42
0.000000001
43
0.0000000001
44
0.0000000001
40
0
40
0
40
0
40
0
40
1
40
1
40
1
40
1
10
-62.110900242578481
20
-28.609454343891272
30
-8.8817841970012523e-15
10
-62.110900242578481
20
-27.378860593891289
30
-8.8817841970012523e-15
10
-61.113509142578415
20
-26.381395293891295
30
-8.8817841970012523e-15
10
-59.882878292578432
20
-26.381395293891291
30
-8.8817841970012523e-15
0
LINE
5
165
100
AcDbEntity
8
0
100
AcDbLine
10
-59.882878292578432
20
-26.381395293891295
30
-8.8817841970012523e-15
11
-59.666389192578436
21
-26.381395293891291
31
-8.8817841970012523e-15
0
SPLINE
5
166
100
AcDbEntity
8
0
100
AcDbSpline
70
0
71
3
72
8
73
4
74
0
42
0.000000001
43
0.0000000001
44
0.0000000001
40
0
40
0
40
0
40
0
40
1
40
1
40
1
40
1
10
-59.666389192578436
20
-26.381395293891291
30
-8.8817841970012523e-15
10
-58.435869642578453
20
-26.381395293891291
30
-8.8817841970012523e-15
10
-57.438515642578416
20
-27.378860593891268
30
-8.8817841970012523e-15
10
-57.438515642578416
20
-28.609454343891258
30
-8.8817841970012523e-15
0
LINE
5
167
100
AcDbEntity
8
0
100
AcDbLine
10
-57.438515642578416
20
-28.609454343891258
30
-8.8817841970012523e-15
11
-57.438515642578437
21
-34.017876443891197
31
-8.8817841970012429e-15
0
SPLINE
5
168
100
AcDbEntity
8
0
100
AcDbSpline
70
0
71
3
72
8
73
4
74
0
42
0.000000001
43
0.0000000001
44
0.0000000001
40
0
40
0
40
0
40
0
40
1
40
1
40
1
40
1
10
-57.438515642578416
20
-34.017876443891197
30
-8.8817841970012523e-15
10
-57.438515642578416
20
-34.099989343891224
30
-8.8817841970012523e-15
10
-57.505022692578436
20
-34.166459293891187
30
-8.8817841970012523e-15
10
-57.587061392578427
20
-34.166459293891187
30
-8.8817841970012523e-15
0
SPLINE
5
169
100
AcDbEntity
8
0
100
AcDbSpline
70
0
71
3
72
8
73
4
74
0
42
0.000000001
43
0.0000000001
44
0.0000000001
40
0
40
0
40
0
40
0
40
1
40
1
40
1
40
1
10
-60.554976592578356
20
-6.316066993891436
30
-8.8817841970012523e-15
10
-60.554976592578356
20
-5.8632111438914603
30
-8.8817841970012523e-15
10
-60.187842942578349
20
-5.496077493891427
30
-8.8817841970012523e-15
10
-59.7349870925784
20
-5.496077493891427
30
-8.8817841970012523e-15
0
SPLINE
5
170
100
AcDbEntity
8
0
100
AcDbSpline
70
0
71
3
72
8
73
4
74
0
42
0.000000001
43
0.0000000001
44
0.0000000001
40
0
40
0
40
0
40
0
40
1
40
1
40
1
40
1
10
-59.7349870925784
20
-5.496077493891427
30
-8.8817841970012523e-15
10
-59.282131242578345
20
-5.4960774938914216
30
-8.8817841970012523e-15
10
-58.914997592578374
20
-5.8632111438914531
30
-8.8817841970012523e-15
10
-58.914997592578374
20
-6.3160669938914253
30
-8.8817841970012523e-15
0
SPLINE
5
171
100
AcDbEntity
8
0
100
AcDbSpline
70
0
71
3
72
8
73
4
74
0
42
0.000000001
43
0.0000000001
44
0.0000000001
40
0
40
0
40
0
40
0
40
1
40
1
40
1
40
1
10
-58.914997592578374
20
-6.3160669938914253
30
-8.8817841970012523e-15
10
-58.914997592578374
20
-6.7689201938914199
30
-8.8817841970012523e-15
10
-59.282131242578345
20
-7.136056493891437
30
-8.8817841970012523e-15
10
-59.7349870925784
20
-7.1360564938914433
30
-8.8817841970012523e-15
0
SPLINE
5
172
100
AcDbEntity
8
0
100
AcDbSpline
70
0
71
3
72
8
73
4
74
0
42
0.000000001
43
0.0000000001
44
0.0000000001
40
0
40
0
40
0
40
0
40
1
40
1
40
1
40
1
10
-59.7349870925784
20
-7.1360564938914433
30
-8.8817841970012523e-15
10
-60.187842942578349
20
-7.1360564938914433
30
-8.8817841970012523e-15
10
-60.554976592578356
20
-6.768920193891427
30
-8.8817841970012523e-15
10
-60.554976592578356
20
-6.316066993891436
30
-8.8817841970012523e-15
0
LINE
5
173
100
AcDbEntity
8
0
100
AcDbLine
10
-62.110910842578363
20
6.6191183061084313
30
-8.8817841970012523e-15
11
-62.110910842578363
21
6.8900808061084318
31
-8.8817841970012523e-15
0
SPLINE
5
174
100
AcDbEntity
8
0
100
AcDbSpline
70
0
71
3
72
8
73
4
74
0
42
0.000000001
43
0.0000000001
44
0.0000000001
40
0
40
0
40
0
40
0
40
1
40
1
40
1
40
1
10
-62.110910842578363
20
6.8900808061084318
30
-8.8817841970012523e-15
10
-62.110910842578363
20
6.9720850561084671
30
-8.8817841970012523e-15
10
-62.044440892578322
20
7.0385550061084343
30
-8.8817841970012523e-15
10
-61.962402192578324
20
7.0385550061084343
30
-8.8817841970012523e-15
0
LINE
5
175
100
AcDbEntity
8
0
100
AcDbLine
10
-61.962402192578324
20
7.0385550061084334
30
-8.8817841970012523e-15
11
-59.666399792578318
21
7.0385550061084432
31
-8.8817841970012492e-15
0
SPLINE
5
176
100
AcDbEntity
8
0
100
AcDbSpline
70
0
71
3
72
8
73
4
74
0
42
0.000000001
43
0.0000000001
44
0.0000000001
40
0
40
0
40
0
40
0
40
1
40
1
40
1
40
1
10
-59.666399792578318
20
7.0385550061084423
30
-8.8817841970012523e-15
10
-58.435880242578335
20
7.0386663061084764
30
-8.8817841970012523e-15
10
-57.438452042578341
20
6.041089706108453
30
-8.8817841970012523e-15
10
-57.438452042578341
20
4.8106072561085025
30
-8.8817841970012523e-15
0
LINE
5
177
100
AcDbEntity
8
0
100
AcDbLine
10
-57.438452042578341
20
4.8106072561085016
30
-8.8817841970012523e-15
11
-57.438452042578362
21
-0.59788904389145636
31
-8.8817841970012492e-15
0
SPLINE
5
178
100
AcDbEntity
8
0
100
AcDbSpline
70
0
71
3
72
8
73
4
74
0
42
0.000000001
43
0.0000000001
44
0.0000000001
40
0
40
0
40
0
40
0
40
1
40
1
40
1
40
1
10
-57.438452042578341
20
-0.5978890438914567
30
-8.8817841970012523e-15
10
-57.438452042578341
20
-0.67989064389146248
30
-8.8817841970012523e-15
10
-57.505033292578318
20
-0.74647189389146185
30
-8.8817841970012523e-15
10
-57.58703489257833
20
-0.74647189389146207
30
-8.8817841970012523e-15
0
LINE
5
179
100
AcDbEntity
8
0
100
AcDbLine
10
-57.58703489257833
20
-0.74647189389146207
30
-8.8817841970012523e-15
11
-57.9273399425783
21
-0.74647189389146318
31
-8.8817841970012523e-15
0
SPLINE
5
180
100
AcDbEntity
8
0
100
AcDbSpline
70
0
71
3
72
8
73
4
74
0
42
0.000000001
43
0.0000000001
44
0.0000000001
40
0
40
0
40
0
40
0
40
1
40
1
40
1
40
1
10
-57.9273399425783
20
-0.74647189389146262
30
-8.8817841970012523e-15
10
-58.173495792578294
20
-0.74647189389146285
30
-8.8817841970012523e-15
10
-58.372979842578303
20
-0.5469136438914719
30
-8.8817841970012523e-15
10
-58.372979842578303
20
-0.30083199389145815
30
-8.8817841970012523e-15
0
LINE
5
181
100
AcDbEntity
8
0
100
AcDbLine
10
-58.372979842578303
20
-0.30083199389145815
30
-8.8817841970012523e-15
11
-58.372979842578289
21
4.8812748061085145
31
-8.8817841970012618e-15
0
SPLINE
5
182
100
AcDbEntity
8
0
100
AcDbSpline
70
0
71
3
72
8
73
4
74
0
42
0.000000001
43
0.0000000001
44
0.0000000001
40
0
40
0
40
0
40
0
40
1
40
1
40
1
40
1
10
-58.372979842578303
20
4.8812748061084683
30
-8.8817841970012523e-15
10
-58.372979842578303
20
5.5949330561084762
30
-8.8817841970012523e-15
10
-58.951453642578365
20
6.1734784061084831
30
-8.8817841970012523e-15
10
-59.665148992578317
20
6.1734784061084822
30
-8.8817841970012523e-15
0
LINE
5
183
100
AcDbEntity
8
0
100
AcDbLine
10
-59.665148992578324
20
6.1734784061084822
30
-8.8817841970012523e-15
11
-61.665233842578346
21
6.1734784061084733
31
-8.8817841970012492e-15
0
SPLINE
5
184
100
AcDbEntity
8
0
100
AcDbSpline
70
0
71
3
72
8
73
4
74
0
42
0.000000001
43
0.0000000001
44
0.0000000001
40
0
40
0
40
0
40
0
40
1
40
1
40
1
40
1
10
-61.665233842578346
20
6.1734784061084733
30
-8.8817841970012523e-15
10
-61.911461242578355
20
6.1734784061084724
30
-8.8817841970012523e-15
10
-62.110910842578363
20
6.3730366561084644
30
-8.8817841970012523e-15
10
-62.110910842578363
20
6.6191183061084313
30
-8.8817841970012523e-15
0
SPLINE
5
185
100
AcDbEntity
8
0
100
AcDbSpline
70
0
71
3
72
8
73
4
74
0
42
0.000000001
43
0.0000000001
44
0.0000000001
40
-1
40
-1
40
-1
40
-1
40
0
40
0
40
0
40
0
10
-58.835545292578331
20
19.315567756108369
30
-8.8817841970012523e-15
10
-58.543714042578294
20
19.315567756108369
30
-8.8817841970012523e-15
10
-58.297264042578298
20
19.555565006108363
30
-8.8817841970012523e-15
10
-58.297264042578298
20
19.847430706108383
30
-8.8817841970012523e-15
0
LINE
5
186
100
AcDbEntity
8
0
100
AcDbLine
10
-58.297264042578298
20
19.847430706108383
30
-8.8817841970012523e-15
11
-58.297264042578291
21
23.356229456108331
31
-8.8817841970012539e-15
0
LINE
5
187
100
AcDbEntity
8
0
100
AcDbLine
10
-58.297264042578291
20
23.356229456108331
30
-8.8817841970012539e-15
11
-57.915012142578277
21
23.356229456108331
31
-8.8817841970012507e-15
0
SPLINE
5
188
100
AcDbEntity
8
0
100
AcDbSpline
70
0
71
3
72
8
73
4
74
0
42
0.000000001
43
0.0000000001
44
0.0000000001
40
-1
40
-1
40
-1
40
-1
40
0
40
0
40
0
40
0
10
-57.915012142578277
20
23.356229456108331
30
-8.8817841970012523e-15
10
-57.910456792578273
20
23.356229456108331
30
-8.8817841970012523e-15
10
-57.906055142578268
20
23.355712706108321
30
-8.8817841970012523e-15
10
-57.901534242578236
20
23.355582856108306
30
-8.8817841970012523e-15
0
SPLINE
5
189
100
AcDbEntity
8
0
100
AcDbSpline
70
0
71
3
72
8
73
4
74
0
42
0.000000001
43
0.0000000001
44
0.0000000001
40
-1
40
-1
40
-1
40
-1
40
0
40
0
40
0
40
0
10
-57.901534242578236
20
23.355582856108306
30
-8.8817841970012523e-15
10
-57.897214742578242
20
23.355715356108302
30
-8.8817841970012523e-15
10
-57.893001242578279
20
23.356229456108331
30
-8.8817841970012523e-15
10
-57.888647292578312
20
23.356229456108331
30
-8.8817841970012523e-15
0
SPLINE
5
190
100
AcDbEntity
8
0
100
AcDbSpline
70
0
71
3
72
8
73
4
74
0
42
0.000000001
43
0.0000000001
44
0.0000000001
40
-1
40
-1
40
-1
40
-1
40
0
40
0
40
0
40
0
10
-57.888647292578312
20
23.356229456108331
30
-8.8817841970012523e-15
10
-57.661632392578284
20
23.356229456108331
30
-8.8817841970012523e-15
10
-57.473561892578289
20
23.174630256108312
30
-8.8817841970012523e-15
10
-57.473561892578289
20
22.947612706108337
30
-8.8817841970012523e-15
0
LINE
5
191
100
AcDbEntity
8
0
100
AcDbLine
10
-57.473561892578289
20
22.947612706108337
30
-8.8817841970012523e-15
11
-57.473561892578296
21
19.847430706108391
31
-8.8817841970012507e-15
0
SPLINE
5
192
100
AcDbEntity
8
0
100
AcDbSpline
70
0
71
3
72
8
73
4
74
0
42
0.000000001
43
0.0000000001
44
0.0000000001
40
-1
40
-1
40
-1
40
-1
40
0
40
0
40
0
40
0
10
-57.473561892578324
20
19.847430706108387
30
-8.8817841970012523e-15
10
-57.473561892578324
20
19.101569656108349
30
-8.8817841970012523e-15
10
-58.089681592578266
20
18.485394306108354
30
-8.8817841970012523e-15
10
-58.835545292578331
20
18.485394306108351
30
-8.8817841970012523e-15
0
SPLINE
5
193
100
AcDbEntity
8
0
100
AcDbSpline
70
0
71
3
72
8
73
4
74
0
42
0.000000001
43
0.0000000001
44
0.0000000001
40
-1
40
-1
40
-1
40
-1
40
0
40
0
40
0
40
0
10
-58.835545292578331
20
18.485394306108351
30
-8.8817841970012523e-15
10
-59.205257392578304
20
18.485394306108351
30
-8.8817841970012523e-15
10
-59.542517592578264
20
18.634576056108386
30
-8.8817841970012523e-15
10
-59.788964942578289
20
18.874546806108352
30
-8.8817841970012523e-15
0
SPLINE
5
194
100
AcDbEntity
8
0
100
AcDbSpline
70
0
71
3
72
8
73
4
74
0
42
0.000000001
43
0.0000000001
44
0.0000000001
40
-1
40
-1
40
-1
40
-1
40
0
40
0
40
0
40
0
10
-59.788964942578289
20
18.874546806108352
30
-8.8817841970012523e-15
10
-60.028975442578314
20
18.634576056108379
30
-8.8817841970012523e-15
10
-60.366243592578329
20
18.485394306108343
30
-8.8817841970012523e-15
10
-60.735915942578316
20
18.485394306108343
30
-8.8817841970012523e-15
0
LINE
5
195
100
AcDbEntity
8
0
100
AcDbLine
10
-60.735915942578309
20
18.485394306108343
30
-8.8817841970012523e-15
11
-60.742387242578289
21
18.485394306108343
31
-8.8817841970012523e-15
0
SPLINE
5
196
100
AcDbEntity
8
0
100
AcDbSpline
70
0
71
3
72
8
73
4
74
0
42
0.000000001
43
0.0000000001
44
0.0000000001
40
-1
40
-1
40
-1
40
-1
40
0
40
0
40
0
40
0
10
-60.742387242578289
20
18.485394306108343
30
-8.8817841970012523e-15
10
-61.494764642578289
20
18.48539430610834
30
-8.8817841970012523e-15
10
-62.104423642578283
20
19.101569656108332
30
-8.8817841970012523e-15
10
-62.104423642578283
20
19.847430706108369
30
-8.8817841970012523e-15
0
LINE
5
197
100
AcDbEntity
8
0
100
AcDbLine
10
-62.104423642578283
20
19.847430706108373
30
-8.8817841970012523e-15
11
-62.104423642578269
21
22.947612706108316
31
-8.8817841970012555e-15
0
SPLINE
5
198
100
AcDbEntity
8
0
100
AcDbSpline
70
0
71
3
72
8
73
4
74
0
42
0.000000001
43
0.0000000001
44
0.0000000001
40
-1
40
-1
40
-1
40
-1
40
0
40
0
40
0
40
0
10
-62.10442364257824
20
22.947612706108316
30
-8.8817841970012523e-15
10
-62.10442364257824
20
22.960709006108324
30
-8.8817841970012523e-15
10
-62.103668392578314
20
22.973609206108307
30
-8.8817841970012523e-15
10
-62.102483842578323
20
22.986376906108337
30
-8.8817841970012523e-15
0
LINE
5
199
100
AcDbEntity
8
0
100
AcDbLine
10
-62.102483842578323
20
22.986376906108337
30
-8.8817841970012523e-15
11
-62.102483842578323
21
23.216590356108338
31
-8.8817841970012523e-15
0
SPLINE
5
200
100
AcDbEntity
8
0
100
AcDbSpline
70
0
71
3
72
8
73
4
74
0
42
0.000000001
43
0.0000000001
44
0.0000000001
40
-1
40
-1
40
-1
40
-1
40
0
40
0
40
0
40
0
10
-62.102483842578323
20
23.216590356108338
30
-8.8817841970012523e-15
10
-62.102483842578323
20
23.293734506108294
30
-8.8817841970012523e-15
10
-62.036618092578252
20
23.356229456108316
30
-8.8817841970012523e-15
10
-61.955350542578259
20
23.356229456108316
30
-8.8817841970012523e-15
0
LINE
5
201
100
AcDbEntity
8
0
100
AcDbLine
10
-61.955350542578259
20
23.356229456108316
30
-8.8817841970012523e-15
11
-61.280721492578266
21
23.356229456108316
31
-8.8817841970012523e-15
0
LINE
5
202
100
AcDbEntity
8
0
100
AcDbLine
10
-61.280721492578266
20
23.356229456108316
30
-8.8817841970012523e-15
11
-61.280721492578266
21
19.847430706108373
31
-8.8817841970012492e-15
0
SPLINE
5
203
100
AcDbEntity
8
0
100
AcDbSpline
70
0
71
3
72
8
73
4
74
0
42
0.000000001
43
0.0000000001
44
0.0000000001
40
-1
40
-1
40
-1
40
-1
40
0
40
0
40
0
40
0
10
-61.280721492578294
20
19.847430706108373
30
-8.8817841970012523e-15
10
-61.280721492578294
20
19.555565006108356
30
-8.8817841970012523e-15
10
-61.040732192578318
20
19.315567756108361
30
-8.8817841970012523e-15
10
-60.742387242578289
20
19.315567756108361
30
-8.8817841970012523e-15
0
LINE
5
204
100
AcDbEntity
8
0
100
AcDbLine
10
-60.742387242578289
20
19.315567756108361
30
-8.8817841970012523e-15
11
-60.735915942578316
21
19.315567756108361
31
-8.8817841970012523e-15
0
SPLINE
5
205
100
AcDbEntity
8
0
100
AcDbSpline
70
0
71
3
72
8
73
4
74
0
42
0.000000001
43
0.0000000001
44
0.0000000001
40
-1
40
-1
40
-1
40
-1
40
0
40
0
40
0
40
0
10
-60.735915942578316
20
19.315567756108361
30
-8.8817841970012523e-15
10
-60.437608092578301
20
19.315567756108365
30
-8.8817841970012523e-15
10
-60.197581692578311
20
19.555565006108356
30
-8.8817841970012523e-15
10
-60.197581692578311
20
19.847430706108376
30
-8.8817841970012523e-15
0
LINE
5
206
100
AcDbEntity
8
0
100
AcDbLine
10
-60.197581692578325
20
19.847430706108376
30
-8.8817841970012523e-15
11
-60.197581692578304
21
23.356229456108323
31
-8.8817841970012539e-15
0
LINE
5
207
100
AcDbEntity
8
0
100
AcDbLine
10
-60.197581692578304
20
23.356229456108323
30
-8.8817841970012539e-15
11
-59.373932542578281
21
23.356229456108331
31
-8.8817841970012523e-15
0
LINE
5
208
100
AcDbEntity
8
0
100
AcDbLine
10
-59.373932542578281
20
23.356229456108331
30
-8.8817841970012523e-15
11
-59.373932542578288
21
19.847430706108383
31
-8.8817841970012523e-15
0
SPLINE
5
209
100
AcDbEntity
8
0
100
AcDbSpline
70
0
71
3
72
8
73
4
74
0
42
0.000000001
43
0.0000000001
44
0.0000000001
40
-1
40
-1
40
-1
40
-1
40
0
40
0
40
0
40
0
10
-59.373932542578316
20
19.84743070610838
30
-8.8817841970012523e-15
10
-59.373932542578316
20
19.555565006108363
30
-8.8817841970012523e-15
10
-59.133890242578289
20
19.315567756108369
30
-8.8817841970012523e-15
10
-58.835545292578331
20
19.315567756108369
30
-8.8817841970012523e-15
0
SPLINE
5
210
100
AcDbEntity
8
0
100
AcDbSpline
70
0
71
3
72
8
73
4
74
0
42
0.000000001
43
0.0000000001
44
0.0000000001
40
-1
40
-1
40
-1
40
-1
40
0
40
0
40
0
40
0
10
-57.019709642578249
20
33.907909356108242
30
-8.8817841970012523e-15
10
-56.376130642578204
20
33.907909356108242
30
-8.8817841970012523e-15
10
-55.854406592578272
20
33.386201206108275
30
-8.8817841970012523e-15
10
-55.854406592578272
20
32.742659306108244
30
-8.8817841970012523e-15
0
SPLINE
5
211
100
AcDbEntity
8
0
100
AcDbSpline
70
0
71
3
72
8
73
4
74
0
42
0.000000001
43
0.0000000001
44
0.0000000001
40
-1
40
-1
40
-1
40
-1
40
0
40
0
40
0
40
0
10
-55.854406592578272
20
32.742659306108244
30
-8.8817841970012523e-15
10
-55.854406592578272
20
32.290092306108249
30
-8.8817841970012523e-15
10
-56.112535142578253
20
31.89803010610828
30
-8.8817841970012523e-15
10
-56.489463192578242
20
31.705022656108255
30
-8.8817841970012523e-15
0
SPLINE
5
212
100
AcDbEntity
8
0
100
AcDbSpline
70
0
71
3
72
8
73
4
74
0
42
0.000000001
43
0.0000000001
44
0.0000000001
40
-1
40
-1
40
-1
40
-1
40
0
40
0
40
0
40
0
10
-56.489463192578242
20
31.705022656108255
30
-8.8817841970012523e-15
10
-56.612889592578242
20
31.525771356108272
30
-8.8817841970012523e-15
10
-56.684309742578236
20
31.315454106108248
30
-8.8817841970012523e-15
10
-56.684309742578236
20
31.090185556108271
30
-8.8817841970012523e-15
0
SPLINE
5
213
100
AcDbEntity
8
0
100
AcDbSpline
70
0
71
3
72
8
73
4
74
0
42
0.000000001
43
0.0000000001
44
0.0000000001
40
-1
40
-1
40
-1
40
-1
40
0
40
0
40
0
40
0
10
-56.684309742578236
20
31.090185556108271
30
-8.8817841970012523e-15
10
-56.684309742578236
20
30.899928806108235
30
-8.8817841970012523e-15
10
-56.633424442578288
20
30.720224356108282
30
-8.8817841970012523e-15
10
-56.543268792578232
20
30.560962006108273
30
-8.8817841970012523e-15
0
SPLINE
5
214
100
AcDbEntity
8
0
100
AcDbSpline
70
0
71
3
72
8
73
4
74
0
42
0.000000001
43
0.0000000001
44
0.0000000001
40
-1
40
-1
40
-1
40
-1
40
0
40
0
40
0
40
0
10
-56.543268792578232
20
30.560962006108273
30
-8.8817841970012523e-15
10
-56.137317942578235
20
30.378790406108255
30
-8.8817841970012523e-15
10
-55.854406592578272
20
29.971416506108284
30
-8.8817841970012523e-15
10
-55.854406592578272
20
29.497662756108266
30
-8.8817841970012523e-15
0
SPLINE
5
215
100
AcDbEntity
8
0
100
AcDbSpline
70
0
71
3
72
8
73
4
74
0
42
0.000000001
43
0.0000000001
44
0.0000000001
40
-1
40
-1
40
-1
40
-1
40
0
40
0
40
0
40
0
10
-55.854406592578272
20
29.497662756108266
30
-8.8817841970012523e-15
10
-55.854406592578272
20
28.854083756108267
30
-8.8817841970012523e-15
10
-56.376130642578204
20
28.332359706108299
30
-8.8817841970012523e-15
10
-57.019709642578249
20
28.332359706108299
30
-8.8817841970012523e-15
0
SPLINE
5
216
100
AcDbEntity
8
0
100
AcDbSpline
70
0
71
3
72
8
73
4
74
0
42
0.000000001
43
0.0000000001
44
0.0000000001
40
-1
40
-1
40
-1
40
-1
40
0
40
0
40
0
40
0
10
-57.019709642578249
20
28.332359706108299
30
-8.8817841970012523e-15
10
-57.663291292578265
20
28.332359706108296
30
-8.8817841970012523e-15
10
-58.185015342578268
20
28.85408375610826
30
-8.8817841970012523e-15
10
-58.185015342578268
20
29.497662756108255
30
-8.8817841970012523e-15
0
SPLINE
5
217
100
AcDbEntity
8
0
100
AcDbSpline
70
0
71
3
72
8
73
4
74
0
42
0.000000001
43
0.0000000001
44
0.0000000001
40
-1
40
-1
40
-1
40
-1
40
0
40
0
40
0
40
0
10
-58.185015342578268
20
29.497662756108255
30
-8.8817841970012523e-15
10
-58.185015342578268
20
29.939831156108269
30
-8.8817841970012523e-15
10
-57.938676642578244
20
30.324438906108249
30
-8.8817841970012523e-15
10
-57.575782992578297
20
30.521874506108286
30
-8.8817841970012523e-15
0
SPLINE
5
218
100
AcDbEntity
8
0
100
AcDbSpline
70
0
71
3
72
8
73
4
74
0
42
0.000000001
43
0.0000000001
44
0.0000000001
40
-1
40
-1
40
-1
40
-1
40
0
40
0
40
0
40
0
10
-57.575782992578297
20
30.521874506108286
30
-8.8817841970012523e-15
10
-57.471184842578253
20
30.690586756108257
30
-8.8817841970012523e-15
10
-57.411506842578248
20
30.88417190610825
30
-8.8817841970012523e-15
10
-57.411506842578248
20
31.090185556108271
30
-8.8817841970012523e-15
0
SPLINE
5
219
100
AcDbEntity
8
0
100
AcDbSpline
70
0
71
3
72
8
73
4
74
0
42
0.000000001
43
0.0000000001
44
0.0000000001
40
-1
40
-1
40
-1
40
-1
40
0
40
0
40
0
40
0
10
-57.411506842578248
20
31.090185556108271
30
-8.8817841970012523e-15
10
-57.411506842578248
20
31.339274956108273
30
-8.8817841970012523e-15
10
-57.498646792578256
20
31.570172106108245
30
-8.8817841970012523e-15
10
-57.647113042578226
20
31.760879356108269
30
-8.8817841970012523e-15
0
SPLINE
5
220
100
AcDbEntity
8
0
100
AcDbSpline
70
0
71
3
72
8
73
4
74
0
42
0.000000001
43
0.0000000001
44
0.0000000001
40
-1
40
-1
40
-1
40
-1
40
0
40
0
40
0
40
0
10
-57.647113042578226
20
31.760879356108269
30
-8.8817841970012523e-15
10
-57.815955142578304
20
31.869004656108242
30
-8.8817841970012523e-15
10
-57.955072192578214
20
32.01931000610827
30
-8.8817841970012523e-15
10
-58.049473142578236
20
32.19715415610824
30
-8.8817841970012523e-15
0
SPLINE
5
221
100
AcDbEntity
8
0
100
AcDbSpline
70
0
71
3
72
8
73
4
74
0
42
0.000000001
43
0.0000000001
44
0.0000000001
40
-1
40
-1
40
-1
40
-1
40
0
40
0
40
0
40
0
10
-58.049473142578236
20
32.19715415610824
30
-8.8817841970012523e-15
10
-58.205770142578288
20
32.312042256108249
30
-8.8817841970012523e-15
10
-58.387173242578214
20
32.37825250610824
30
-8.8817841970012523e-15
10
-58.580962442578304
20
32.37825250610824
30
-8.8817841970012523e-15
0
SPLINE
5
222
100
AcDbEntity
8
0
100
AcDbSpline
70
0
71
3
72
8
73
4
74
0
42
0.000000001
43
0.0000000001
44
0.0000000001
40
-1
40
-1
40
-1
40
-1
40
0
40
0
40
0
40
0
10
-58.580962442578304
20
32.37825250610824
30
-8.8817841970012523e-15
10
-58.837328742578244
20
32.37825250610824
30
-8.8817841970012523e-15
10
-59.072124042578274
20
32.262739006108262
30
-8.8817841970012523e-15
10
-59.255482842578225
20
32.071210256108238
30
-8.8817841970012523e-15
0
SPLINE
5
223
100
AcDbEntity
8
0
100
AcDbSpline
70
0
71
3
72
8
73
4
74
0
42
0.000000001
43
0.0000000001
44
0.0000000001
40
-1
40
-1
40
-1
40
-1
40
0
40
0
40
0
40
0
10
-59.255482842578225
20
32.071210256108238
30
-8.8817841970012523e-15
10
-59.466475842578255
20
31.772549956108236
30
-8.8817841970012523e-15
10
-59.814179692578271
20
31.577353606108236
30
-8.8817841970012523e-15
10
-60.207664942578283
20
31.577353606108236
30
-8.8817841970012523e-15
0
SPLINE
5
224
100
AcDbEntity
8
0
100
AcDbSpline
70
0
71
3
72
8
73
4
74
0
42
0.000000001
43
0.0000000001
44
0.0000000001
40
-1
40
-1
40
-1
40
-1
40
0
40
0
40
0
40
0
10
-60.207664942578283
20
31.577353606108236
30
-8.8817841970012523e-15
10
-60.851243942578257
20
31.577353606108232
30
-8.8817841970012523e-15
10
-61.372967992578261
20
32.099077656108236
30
-8.8817841970012523e-15
10
-61.372967992578261
20
32.742659306108223
30
-8.8817841970012523e-15
0
SPLINE
5
225
100
AcDbEntity
8
0
100
AcDbSpline
70
0
71
3
72
8
73
4
74
0
42
0.000000001
43
0.0000000001
44
0.0000000001
40
-1
40
-1
40
-1
40
-1
40
0
40
0
40
0
40
0
10
-61.372967992578261
20
32.742659306108223
30
-8.8817841970012523e-15
10
-61.372967992578261
20
33.386201206108254
30
-8.8817841970012523e-15
10
-60.851243942578257
20
33.90790935610822
30
-8.8817841970012523e-15
10
-60.207664942578283
20
33.907909356108227
30
-8.8817841970012523e-15
0
SPLINE
5
226
100
AcDbEntity
8
0
100
AcDbSpline
70
0
71
3
72
8
73
4
74
0
42
0.000000001
43
0.0000000001
44
0.0000000001
40
-1
40
-1
40
-1
40
-1
40
0
40
0
40
0
40
0
10
-60.207664942578283
20
33.907909356108227
30
-8.8817841970012523e-15
10
-59.814179692578271
20
33.907909356108227
30
-8.8817841970012523e-15
10
-59.466475842578255
20
33.712702406108249
30
-8.8817841970012523e-15
10
-59.255482842578225
20
33.414052706108222
30
-8.8817841970012523e-15
0
SPLINE
5
227
100
AcDbEntity
8
0
100
AcDbSpline
70
0
71
3
72
8
73
4
74
0
42
0.000000001
43
0.0000000001
44
0.0000000001
40
-1
40
-1
40
-1
40
-1
40
0
40
0
40
0
40
0
10
-59.255482842578225
20
33.414052706108222
30
-8.8817841970012523e-15
10
-59.072124042578274
20
33.22252130610827
30
-8.8817841970012523e-15
10
-58.837328742578244
20
33.107010456108227
30
-8.8817841970012523e-15
10
-58.580962442578304
20
33.107010456108227
30
-8.8817841970012523e-15
0
SPLINE
5
228
100
AcDbEntity
8
0
100
AcDbSpline
70
0
71
3
72
8
73
4
74
0
42
0.000000001
43
0.0000000001
44
0.0000000001
40
-1
40
-1
40
-1
40
-1
40
0
40
0
40
0
40
0
10
-58.580962442578304
20
33.107010456108227
30
-8.8817841970012523e-15
10
-58.387183842578239
20
33.107010456108227
30
-8.8817841970012523e-15
10
-58.205762192578234
20
33.17312530610824
30
-8.8817841970012523e-15
10
-58.049473142578236
20
33.288000156108232
30
-8.8817841970012523e-15
0
SPLINE
5
229
100
AcDbEntity
8
0
100
AcDbSpline
70
0
71
3
72
8
73
4
74
0
42
0.000000001
43
0.0000000001
44
0.0000000001
40
-1
40
-1
40
-1
40
-1
40
0
40
0
40
0
40
0
10
-58.049473142578236
20
33.288000156108232
30
-8.8817841970012523e-15
10
-57.85380509257827
20
33.656684056108254
30
-8.8817841970012523e-15
10
-57.466202842578227
20
33.907909356108242
30
-8.8817841970012523e-15
10
-57.019709642578249
20
33.907909356108242
30
-8.8817841970012523e-15
0
LINE
5
230
100
AcDbEntity
8
0
100
AcDbLine
10
-61.26498862945401
20
15.597066953777055
30
-8.8817841970012523e-15
11
-62.092604143286223
21
15.597066953777052
31
-8.8817841970012523e-15
0
SPLINE
5
231
100
AcDbEntity
8
0
100
AcDbSpline
70
0
71
3
72
8
73
4
74
0
42
0.000000001
43
0.0000000001
44
0.0000000001
40
0.13021752810127443
40
0.13021752810127443
40
0.13021752810127443
40
0.13021752810127443
40
1
40
1
40
1
40
1
10
-62.092604143286238
20
15.597066953777098
30
-8.8817841970012523e-15
10
-62.040088562097907
20
16.233846377305138
30
-8.8817841970012523e-15
10
-61.813468800163619
20
16.771039239425122
30
-8.8817841970012523e-15
10
-61.429892642578338
20
17.165948706108381
30
-8.8817841970012523e-15
0
SPLINE
5
232
100
AcDbEntity
8
0
100
AcDbSpline
70
0
71
3
72
8
73
4
74
0
42
0.000000001
43
0.0000000001
44
0.0000000001
40
0
40
0
40
0
40
0
40
1
40
1
40
1
40
1
10
-61.429892642578338
20
17.165948706108381
30
-8.8817841970012523e-15
10
-61.222344642578264
20
17.379973306108383
30
-8.8817841970012523e-15
10
-60.969380942578269
20
17.548579556108379
30
-8.8817841970012523e-15
10
-60.683991842578322
20
17.665325306108347
30
-8.8817841970012523e-15
0
SPLINE
5
233
100
AcDbEntity
8
0
100
AcDbSpline
70
0
71
3
72
8
73
4
74
0
42
0.000000001
43
0.0000000001
44
0.0000000001
40
0
40
0
40
0
40
0
40
1
40
1
40
1
40
1
10
-60.683991842578322
20
17.665325306108347
30
-8.8817841970012523e-15
10
-60.405116442578304
20
17.769117856108384
30
-8.8817841970012523e-15
10
-60.106771492578275
20
17.827492056108362
30
-8.8817841970012523e-15
10
-59.788954342578336
20
17.827492056108365
30
-8.8817841970012523e-15
0
SPLINE
5
234
100
AcDbEntity
8
0
100
AcDbSpline
70
0
71
3
72
8
73
4
74
0
42
0.000000001
43
0.0000000001
44
0.0000000001
40
0
40
0
40
0
40
0
40
1
40
1
40
1
40
1
10
-59.788954342578336
20
17.827492056108365
30
-8.8817841970012523e-15
10
-59.477653542578295
20
17.827492056108365
30
-8.8817841970012523e-15
10
-59.172831992578352
20
17.769117856108387
30
-8.8817841970012523e-15
10
-58.900433192578319
20
17.66532530610835
30
-8.8817841970012523e-15
0
SPLINE
5
235
100
AcDbEntity
8
0
100
AcDbSpline
70
0
71
3
72
8
73
4
74
0
42
0.000000001
43
0.0000000001
44
0.0000000001
40
0
40
0
40
0
40
0
40
1
40
1
40
1
40
1
10
-58.900433192578319
20
17.66532530610835
30
-8.8817841970012523e-15
10
-58.615044092578302
20
17.548579556108386
30
-8.8817841970012523e-15
10
-58.362114842578272
20
17.379973306108393
30
-8.8817841970012523e-15
10
-58.148055792578326
20
17.165948706108395
30
-8.8817841970012523e-15
0
SPLINE
5
236
100
AcDbEntity
8
0
100
AcDbSpline
70
0
71
3
72
8
73
4
74
0
42
0.000000001
43
0.0000000001
44
0.0000000001
40
0
40
0
40
0
40
0
40
0.86978247189872582
40
0.86978247189872582
40
0.86978247189872582
40
0.86978247189872582
10
-58.148055792578326
20
17.165948706108395
30
-8.8817841970012523e-15
10
-57.764477330069468
20
16.771039239425136
30
-8.8817841970012523e-15
10
-57.537885334943155
20
16.233846377305152
30
-8.8817841970012523e-15
10
-57.485377024288731
20
15.597066953777114
30
-8.8817841970012523e-15
0
LINE
5
237
100
AcDbEntity
8
0
100
AcDbLine
10
-57.485377024288738
20
15.597066953777114
30
-8.8817841970012523e-15
11
-58.313155680084812
21
15.597066953777066
31
-8.8817841970012539e-15
0
SPLINE
5
238
100
AcDbEntity
8
0
100
AcDbSpline
70
0
71
3
72
8
73
4
74
0
42
0.000000001
43
0.0000000001
44
0.0000000001
40
0.096443870079641572
40
0.096443870079641572
40
0.096443870079641572
40
0.096443870079641572
40
1
40
1
40
1
40
1
10
-58.313155680084776
20
15.597066953777066
30
-8.8817841970012523e-15
10
-58.411739671663767
20
16.474268898485452
30
-8.8817841970012523e-15
10
-58.962679413627839
20
17.003784606108361
30
-8.8817841970012523e-15
10
-59.788954342578336
20
17.003784606108361
30
-8.8817841970012523e-15
0
SPLINE
5
239
100
AcDbEntity
8
0
100
AcDbSpline
70
0
71
3
72
8
73
4
74
0
42
0.000000001
43
0.0000000001
44
0.0000000001
40
0
40
0
40
0
40
0
40
0.90355612992035839
40
0.90355612992035839
40
0.90355612992035839
40
0.90355612992035839
10
-59.788954342578336
20
17.003784606108361
30
-8.8817841970012523e-15
10
-60.621083637583524
20
17.003784606108358
30
-8.8817841970012523e-15
10
-61.167358826826266
20
16.474268898485441
30
-8.8817841970012523e-15
10
-61.26498862945401
20
15.597066953777057
30
-8.8817841970012523e-15
0
LINE
5
240
100
AcDbEntity
8
0
100
AcDbLine
10
-60.167581042578327
20
0.56424460610849492
30
-8.8817841970012523e-15
11
-60.167581042578313
21
5.1601131061084722
31
-8.8817841970012539e-15
0
SPLINE
5
241
100
AcDbEntity
8
0
100
AcDbSpline
70
0
71
3
72
8
73
4
74
0
42
0.000000001
43
0.0000000001
44
0.0000000001
40
0
40
0
40
0
40
0
40
1
40
1
40
1
40
1
10
-60.167581042578327
20
5.1601131061084748
30
-8.8817841970012523e-15
10
-60.167581042578327
20
5.2421147061084756
30
-8.8817841970012523e-15
10
-60.101182642578344
20
5.30858465610849
30
-8.8817841970012523e-15
10
-60.019069742578324
20
5.30858465610849
30
-8.8817841970012523e-15
0
LINE
5
242
100
AcDbEntity
8
0
100
AcDbLine
10
-60.019069742578324
20
5.30858465610849
30
-8.8817841970012523e-15
11
-59.753113092578339
21
5.3085846561084917
31
-8.8817841970012523e-15
0
SPLINE
5
243
100
AcDbEntity
8
0
100
AcDbSpline
70
0
71
3
72
8
73
4
74
0
42
0.000000001
43
0.0000000001
44
0.0000000001
40
0
40
0
40
0
40
0
40
1
40
1
40
1
40
1
10
-59.753113092578339
20
5.3085846561084926
30
-8.8817841970012523e-15
10
-59.506922792578337
20
5.3085846561084926
30
-8.8817841970012523e-15
10
-59.307436092578321
20
5.109026406108458
30
-8.8817841970012523e-15
10
-59.307436092578321
20
4.8630189561084585
30
-8.8817841970012523e-15
0
LINE
5
244
100
AcDbEntity
8
0
100
AcDbLine
10
-59.307436092578321
20
4.8630189561084585
30
-8.8817841970012523e-15
11
-59.307436092578342
21
0.26707890610849605
31
-8.8817841970012492e-15
0
SPLINE
5
245
100
AcDbEntity
8
0
100
AcDbSpline
70
0
71
3
72
8
73
4
74
0
42
0.000000001
43
0.0000000001
44
0.0000000001
40
0
40
0
40
0
40
0
40
1
40
1
40
1
40
1
10
-59.307436092578321
20
0.26707890610849705
30
-8.8817841970012523e-15
10
-59.307436092578321
20
0.18496335610852674
30
-8.8817841970012523e-15
10
-59.373906042578326
20
0.11860470610849543
30
-8.8817841970012523e-15
10
-59.455947392578324
20
0.1186047061084953
30
-8.8817841970012523e-15
0
LINE
5
246
100
AcDbEntity
8
0
100
AcDbLine
10
-59.455947392578324
20
0.1186047061084953
30
-8.8817841970012523e-15
11
-59.722049792578325
21
0.11860470610849445
31
-8.8817841970012523e-15
0
SPLINE
5
247
100
AcDbEntity
8
0
100
AcDbSpline
70
0
71
3
72
8
73
4
74
0
42
0.000000001
43
0.0000000001
44
0.0000000001
40
0
40
0
40
0
40
0
40
1
40
1
40
1
40
1
10
-59.722049792578325
20
0.11860470610849493
30
-8.8817841970012523e-15
10
-59.96816854257834
20
0.11860470610849236
30
-8.8817841970012523e-15
10
-60.167581042578327
20
0.31798010610850885
30
-8.8817841970012523e-15
10
-60.167581042578327
20
0.56424460610849492
30
-8.8817841970012523e-15
0
SPLINE
5
248
100
AcDbEntity
8
0
100
AcDbSpline
70
0
71
3
72
8
73
4
74
0
42
0.000000001
43
0.0000000001
44
0.0000000001
40
0
40
0
40
0
40
0
40
1
40
1
40
1
40
1
10
-60.554976592578356
20
-3.2060534938914511
30
-8.8817841970012523e-15
10
-60.554976592578356
20
-2.7531976438914727
30
-8.8817841970012523e-15
10
-60.187842942578349
20
-2.3860613438914537
30
-8.8817841970012523e-15
10
-59.7349870925784
20
-2.3860613438914506
30
-8.8817841970012523e-15
0
SPLINE
5
249
100
AcDbEntity
8
0
100
AcDbSpline
70
0
71
3
72
8
73
4
74
0
42
0.000000001
43
0.0000000001
44
0.0000000001
40
0
40
0
40
0
40
0
40
1
40
1
40
1
40
1
10
-59.7349870925784
20
-2.3860613438914506
30
-8.8817841970012523e-15
10
-59.282131242578345
20
-2.3860613438914497
30
-8.8817841970012523e-15
10
-58.914997592578374
20
-2.7531976438914683
30
-8.8817841970012523e-15
10
-58.914997592578374
20
-3.2060534938914467
30
-8.8817841970012523e-15
0
SPLINE
5
250
100
AcDbEntity
8
0
100
AcDbSpline
70
0
71
3
72
8
73
4
74
0
42
0.000000001
43
0.0000000001
44
0.0000000001
40
0
40
0
40
0
40
0
40
1
40
1
40
1
40
1
10
-58.914997592578374
20
-3.2060534938914467
30
-8.8817841970012523e-15
10
-58.914997592578374
20
-3.6589066938914354
30
-8.8817841970012523e-15
10
-59.282131242578345
20
-4.026042993891453
30
-8.8817841970012523e-15
10
-59.7349870925784
20
-4.0260429938914575
30
-8.8817841970012523e-15
0
SPLINE
5
251
100
AcDbEntity
8
0
100
AcDbSpline
70
0
71
3
72
8
73
4
74
0
42
0.000000001
43
0.0000000001
44
0.0000000001
40
0
40
0
40
0
40
0
40
1
40
1
40
1
40
1
10
-59.7349870925784
20
-4.0260429938914575
30
-8.8817841970012523e-15
10
-60.187842942578349
20
-4.0260429938914584
30
-8.8817841970012523e-15
10
-60.554976592578356
20
-3.6589066938914421
30
-8.8817841970012523e-15
10
-60.554976592578356
20
-3.2060534938914511
30
-8.8817841970012523e-15
0
LINE
5
252
100
AcDbEntity
8
0
100
AcDbLine
10
-57.587050792578403
20
-25.582290443891253
30
-8.8817841970012523e-15
11
-57.927355842578372
21
-25.582290443891253
31
-8.8817841970012523e-15
0
SPLINE
5
253
100
AcDbEntity
8
0
100
AcDbSpline
70
0
71
3
72
8
73
4
74
0
42
0.000000001
43
0.0000000001
44
0.0000000001
40
0
40
0
40
0
40
0
40
1
40
1
40
1
40
1
10
-57.927355842578372
20
-25.582290443891253
30
-8.8817841970012523e-15
10
-58.173509042578395
20
-25.58229044389126
30
-8.8817841970012523e-15
10
-58.372958642578361
20
-25.382843493891301
30
-8.8817841970012523e-15
10
-58.372958642578361
20
-25.136724743891286
30
-8.8817841970012523e-15
0
LINE
5
254
100
AcDbEntity
8
0
100
AcDbLine
10
-58.372958642578361
20
-25.136724743891286
30
-8.8817841970012523e-15
11
-58.37295864257834
21
-20.103203443891339
31
-8.8817841970012618e-15
0
SPLINE
5
255
100
AcDbEntity
8
0
100
AcDbSpline
70
0
71
3
72
8
73
4
74
0
42
0.000000001
43
0.0000000001
44
0.0000000001
40
0
40
0
40
0
40
0
40
1
40
1
40
1
40
1
10
-58.372958642578361
20
-20.103203443891328
30
-8.8817841970012523e-15
10
-58.372958642578361
20
-19.389470993891294
30
-8.8817841970012523e-15
10
-58.951466892578395
20
-18.810888543891327
30
-8.8817841970012523e-15
10
-59.665162242578418
20
-18.810740143891344
30
-8.8817841970012523e-15
0
LINE
5
256
100
AcDbEntity
8
0
100
AcDbLine
10
-59.665162242578418
20
-18.810740143891344
30
-8.8817841970012523e-15
11
-59.884192692578402
21
-18.810740143891344
31
-8.8817841970012523e-15
0
SPLINE
5
257
100
AcDbEntity
8
0
100
AcDbSpline
70
0
71
3
72
8
73
4
74
0
42
0.000000001
43
0.0000000001
44
0.0000000001
40
0
40
0
40
0
40
0
40
1
40
1
40
1
40
1
10
-59.884192692578402
20
-18.810740143891348
30
-8.8817841970012523e-15
10
-60.597962242578419
20
-18.810740143891348
30
-8.8817841970012523e-15
10
-61.176396292578382
20
-19.389396793891333
30
-8.8817841970012523e-15
10
-61.176396292578382
20
-20.103055043891345
30
-8.8817841970012523e-15
0
LINE
5
258
100
AcDbEntity
8
0
100
AcDbLine
10
-61.176396292578382
20
-20.103055043891345
30
-8.8817841970012523e-15
11
-61.176396292578389
21
-24.39855134389132
31
-8.881784197001246e-15
0
SPLINE
5
259
100
AcDbEntity
8
0
100
AcDbSpline
70
0
71
3
72
8
73
4
74
0
42
0.000000001
43
0.0000000001
44
0.0000000001
40
0
40
0
40
0
40
0
40
1
40
1
40
1
40
1
10
-61.176396292578382
20
-24.398551343891274
30
-8.8817841970012523e-15
10
-61.176396292578382
20
-24.656595093891273
30
-8.8817841970012523e-15
10
-60.967268892578417
20
-24.865836443891304
30
-8.8817841970012523e-15
10
-60.709188042578404
20
-24.865836443891304
30
-8.8817841970012523e-15
0
SPLINE
5
260
100
AcDbEntity
8
0
100
AcDbSpline
70
0
71
3
72
8
73
4
74
0
42
0.000000001
43
0.0000000001
44
0.0000000001
40
0
40
0
40
0
40
0
40
1
40
1
40
1
40
1
10
-60.709188042578404
20
-24.865836443891304
30
-8.8817841970012523e-15
10
-60.451255592578377
20
-24.8658364438913
30
-8.8817841970012523e-15
10
-60.167779792578429
20
-24.656595093891269
30
-8.8817841970012523e-15
10
-60.167779792578429
20
-24.39855134389127
30
-8.8817841970012523e-15
0
LINE
5
261
100
AcDbEntity
8
0
100
AcDbLine
10
-60.167779792578429
20
-24.398551343891267
30
-8.8817841970012523e-15
11
-60.167779792578422
21
-20.986350393891293
31
-8.8817841970012555e-15
0
SPLINE
5
262
100
AcDbEntity
8
0
100
AcDbSpline
70
0
71
3
72
8
73
4
74
0
42
0.000000001
43
0.0000000001
44
0.0000000001
40
0
40
0
40
0
40
0
40
1
40
1
40
1
40
1
10
-60.167779792578429
20
-20.986350393891342
30
-8.8817841970012523e-15
10
-60.167779792578429
20
-20.740231643891317
30
-8.8817841970012523e-15
10
-59.968255992578399
20
-20.540782043891326
30
-8.8817841970012523e-15
10
-59.72213724257842
20
-20.540782043891326
30
-8.8817841970012523e-15
0
LINE
5
263
100
AcDbEntity
8
0
100
AcDbLine
10
-59.722137242578427
20
-20.540782043891326
30
-8.8817841970012523e-15
11
-59.456034842578383
21
-20.540782043891326
31
-8.8817841970012523e-15
0
SPLINE
5
264
100
AcDbEntity
8
0
100
AcDbSpline
70
0
71
3
72
8
73
4
74
0
42
0.000000001
43
0.0000000001
44
0.0000000001
40
0
40
0
40
0
40
0
40
1
40
1
40
1
40
1
10
-59.456034842578383
20
-20.540782043891326
30
-8.8817841970012523e-15
10
-59.373996142578392
20
-20.540782043891326
30
-8.8817841970012523e-15
10
-59.307560642578395
20
-20.607328843891295
30
-8.8817841970012523e-15
10
-59.307560642578395
20
-20.689367543891308
30
-8.8817841970012523e-15
0
LINE
5
265
100
AcDbEntity
8
0
100
AcDbLine
10
-59.307560642578395
20
-20.689367543891308
30
-8.8817841970012523e-15
11
-59.307560642578409
21
-24.329100143891292
31
-8.8817841970012492e-15
0
SPLINE
5
266
100
AcDbEntity
8
0
100
AcDbSpline
70
0
71
3
72
8
73
4
74
0
42
0.000000001
43
0.0000000001
44
0.0000000001
40
0
40
0
40
0
40
0
40
1
40
1
40
1
40
1
10
-59.307560642578395
20
-24.329100143891296
30
-8.8817841970012523e-15
10
-59.307560642578395
20
-25.103305593891314
30
-8.8817841970012523e-15
10
-59.934985242578421
20
-25.730875943891292
30
-8.8817841970012523e-15
10
-60.709188042578404
20
-25.730875943891295
30
-8.8817841970012523e-15
0
SPLINE
5
267
100
AcDbEntity
8
0
100
AcDbSpline
70
0
71
3
72
8
73
4
74
0
42
0.000000001
43
0.0000000001
44
0.0000000001
40
0
40
0
40
0
40
0
40
1
40
1
40
1
40
1
10
-60.709188042578404
20
-25.730875943891295
30
-8.8817841970012523e-15
10
-61.483319292578415
20
-25.730875943891295
30
-8.8817841970012523e-15
10
-62.110926742578428
20
-25.103305593891317
30
-8.8817841970012523e-15
10
-62.110926742578428
20
-24.329100143891299
30
-8.8817841970012523e-15
0
LINE
5
268
100
AcDbEntity
8
0
100
AcDbLine
10
-62.110926742578428
20
-24.329100143891299
30
-8.8817841970012523e-15
11
-62.110926742578421
21
-20.173868343891325
31
-8.8817841970012555e-15
0
SPLINE
5
269
100
AcDbEntity
8
0
100
AcDbSpline
70
0
71
3
72
8
73
4
74
0
42
0.000000001
43
0.0000000001
44
0.0000000001
40
0
40
0
40
0
40
0
40
1
40
1
40
1
40
1
10
-62.110926742578428
20
-20.173868343891328
30
-8.8817841970012523e-15
10
-62.110926742578428
20
-18.943314343891341
30
-8.8817841970012523e-15
10
-61.11349589257842
20
-17.945811943891329
30
-8.8817841970012523e-15
10
-59.882867692578408
20
-17.945811943891329
30
-8.8817841970012523e-15
0
LINE
5
270
100
AcDbEntity
8
0
100
AcDbLine
10
-59.882867692578408
20
-17.945811943891329
30
-8.8817841970012523e-15
11
-59.666415692578425
21
-17.945811943891329
31
-8.8817841970012523e-15
0
SPLINE
5
271
100
AcDbEntity
8
0
100
AcDbSpline
70
0
71
3
72
8
73
4
74
0
42
0.000000001
43
0.0000000001
44
0.0000000001
40
0
40
0
40
0
40
0
40
1
40
1
40
1
40
1
10
-59.666415692578425
20
-17.945811943891325
30
-8.8817841970012523e-15
10
-58.435859042578393
20
-17.945811943891322
30
-8.8817841970012523e-15
10
-57.438505042578392
20
-18.943314343891323
30
-8.8817841970012523e-15
10
-57.438505042578392
20
-20.173868343891314
30
-8.8817841970012523e-15
0
LINE
5
272
100
AcDbEntity
8
0
100
AcDbLine
10
-57.438505042578392
20
-20.173868343891314
30
-8.8817841970012523e-15
11
-57.438505042578413
21
-25.433781793891271
31
-8.881784197001246e-15
0
SPLINE
5
273
100
AcDbEntity
8
0
100
AcDbSpline
70
0
71
3
72
8
73
4
74
0
42
0.000000001
43
0.0000000001
44
0.0000000001
40
0
40
0
40
0
40
0
40
1
40
1
40
1
40
1
10
-57.438505042578392
20
-25.433781793891267
30
-8.8817841970012523e-15
10
-57.438505042578392
20
-25.515894693891298
30
-8.8817841970012523e-15
10
-57.50504919257839
20
-25.582290443891253
30
-8.8817841970012523e-15
10
-57.587050792578403
20
-25.582290443891253
30
-8.8817841970012523e-15
0
LINE
5
274
100
AcDbEntity
8
0
100
AcDbLine
10
-62.110908192578393
20
-5.3564096166689481
30
-8.8817841970012523e-15
11
-61.176414842578396
21
-5.3564096166689534
31
-8.8817841970012523e-15
0
LINE
5
275
100
AcDbEntity
8
0
100
AcDbLine
10
-61.176414842578396
20
-5.3564096166689534
30
-8.8817841970012523e-15
11
-61.176414842578389
21
-6.5417065438914133
31
-8.8817841970012492e-15
0
SPLINE
5
276
100
AcDbEntity
8
0
100
AcDbSpline
70
0
71
3
72
8
73
4
74
0
42
0.000000001
43
0.0000000001
44
0.0000000001
40
0
40
0
40
0
40
0
40
1
40
1
40
1
40
1
10
-61.176414842578389
20
-6.5417065438914124
30
-8.8817841970012523e-15
10
-61.176414842578389
20
-7.2553647938914256
30
-8.8817841970012523e-15
10
-60.597943692578376
20
-7.833801493891432
30
-8.8817841970012523e-15
10
-59.884174142578395
20
-7.8338014938914311
30
-8.8817841970012523e-15
0
LINE
5
277
100
AcDbEntity
8
0
100
AcDbLine
10
-59.884174142578395
20
-7.8338014938914311
30
-8.8817841970012523e-15
11
-59.665146342578382
21
-7.8338014938914302
31
-8.8817841970012523e-15
0
SPLINE
5
278
100
AcDbEntity
8
0
100
AcDbSpline
70
0
71
3
72
8
73
4
74
0
42
0.000000001
43
0.0000000001
44
0.0000000001
40
0
40
0
40
0
40
0
40
1
40
1
40
1
40
1
10
-59.665146342578382
20
-7.8338014938914311
30
-8.8817841970012523e-15
10
-58.951448342578352
20
-7.8338014938914258
30
-8.8817841970012523e-15
10
-58.372977192578368
20
-7.2553647938914168
30
-8.8817841970012523e-15
10
-58.372977192578368
20
-6.5417065438914035
30
-8.8817841970012523e-15
0
LINE
5
279
100
AcDbEntity
8
0
100
AcDbLine
10
-58.372977192578375
20
-6.5417065438914035
30
-8.8817841970012523e-15
11
-58.372977192578368
21
-5.3564096166689676
31
-8.8817841970012539e-15
0
LINE
5
280
100
AcDbEntity
8
0
100
AcDbLine
10
-58.372977192578368
20
-5.3564096166689676
30
-8.8817841970012539e-15
11
-57.438486492578349
21
-5.3564096166689792
31
-8.8817841970012523e-15
0
LINE
5
281
100
AcDbEntity
8
0
100
AcDbLine
10
-57.438486492578349
20
-5.3564096166689792
30
-8.8817841970012523e-15
11
-57.438486492578349
21
-6.4708932438914255
31
-8.8817841970012539e-15
0
SPLINE
5
282
100
AcDbEntity
8
0
100
AcDbSpline
70
0
71
3
72
8
73
4
74
0
42
0.000000001
43
0.0000000001
44
0.0000000001
40
0
40
0
40
0
40
0
40
1
40
1
40
1
40
1
10
-57.438486492578349
20
-6.4708932438914246
30
-8.8817841970012523e-15
10
-57.438486492578349
20
-7.7013730438913903
30
-8.8817841970012523e-15
10
-58.435877592578365
20
-8.6989125438914101
30
-8.8817841970012523e-15
10
-59.666397142578347
20
-8.6989125438914172
30
-8.8817841970012523e-15
0
LINE
5
283
100
AcDbEntity
8
0
100
AcDbLine
10
-59.666397142578361
20
-8.6989125438914172
30
-8.8817841970012523e-15
11
-59.88284914257833
21
-8.698912543891419
31
-8.8817841970012523e-15
0
SPLINE
5
284
100
AcDbEntity
8
0
100
AcDbSpline
70
0
71
3
72
8
73
4
74
0
42
0.000000001
43
0.0000000001
44
0.0000000001
40
0
40
0
40
0
40
0
40
1
40
1
40
1
40
1
10
-59.88284914257833
20
-8.6989125438914172
30
-8.8817841970012523e-15
10
-61.113514442578357
20
-8.698912543891419
30
-8.8817841970012523e-15
10
-62.110908192578393
20
-7.7013730438914063
30
-8.8817841970012523e-15
10
-62.110908192578393
20
-6.4708932438914406
30
-8.8817841970012523e-15
0
LINE
5
285
100
AcDbEntity
8
0
100
AcDbLine
10
-62.110908192578393
20
-6.4708932438914406
30
-8.8817841970012523e-15
11
-62.110908192578393
21
-5.3564096166689481
31
-8.8817841970012523e-15
0
SPLINE
5
286
100
AcDbEntity
8
0
100
AcDbSpline
70
0
71
3
72
8
73
4
74
0
42
0.000000001
43
0.0000000001
44
0.0000000001
40
0
40
0
40
0
40
0
40
1
40
1
40
1
40
1
10
-58.297261392578257
20
11.867271056108418
30
-8.8817841970012523e-15
10
-58.297261392578257
20
12.094285956108418
30
-8.8817841970012523e-15
10
-58.115662192578306
20
12.282361756108431
30
-8.8817841970012523e-15
10
-57.888647292578312
20
12.282361756108433
30
-8.8817841970012523e-15
0
SPLINE
5
287
100
AcDbEntity
8
0
100
AcDbSpline
70
0
71
3
72
8
73
4
74
0
42
0.000000001
43
0.0000000001
44
0.0000000001
40
0
40
0
40
0
40
0
40
1
40
1
40
1
40
1
10
-57.888647292578312
20
12.282361756108433
30
-8.8817841970012523e-15
10
-57.661629742578278
20
12.282361756108433
30
-8.8817841970012523e-15
10
-57.473553942578306
20
12.094285956108422
30
-8.8817841970012523e-15
10
-57.473553942578306
20
11.867271056108422
30
-8.8817841970012523e-15
0
LINE
5
288
100
AcDbEntity
8
0
100
AcDbLine
10
-57.473553942578306
20
11.86727105610842
30
-8.8817841970012523e-15
11
-57.473553942578313
21
7.8201354061084549
31
-8.881784197001246e-15
0
SPLINE
5
289
100
AcDbEntity
8
0
100
AcDbSpline
70
0
71
3
72
8
73
4
74
0
42
0.000000001
43
0.0000000001
44
0.0000000001
40
0
40
0
40
0
40
0
40
1
40
1
40
1
40
1
10
-57.473553942578341
20
7.8201354061084549
30
-8.8817841970012523e-15
10
-57.473553942578341
20
7.5931576061084645
30
-8.8817841970012523e-15
10
-57.661629742578313
20
7.4115584061084485
30
-8.8817841970012523e-15
10
-57.888647292578348
20
7.4115584061084459
30
-8.8817841970012523e-15
0
SPLINE
5
290
100
AcDbEntity
8
0
100
AcDbSpline
70
0
71
3
72
8
73
4
74
0
42
0.000000001
43
0.0000000001
44
0.0000000001
40
0
40
0
40
0
40
0
40
1
40
1
40
1
40
1
10
-57.888647292578348
20
7.4115584061084459
30
-8.8817841970012523e-15
10
-58.115662192578341
20
7.4115584061084459
30
-8.8817841970012523e-15
10
-58.297261392578292
20
7.5931576061084627
30
-8.8817841970012523e-15
10
-58.297261392578292
20
7.8201354061084523
30
-8.8817841970012523e-15
0
LINE
5
291
100
AcDbEntity
8
0
100
AcDbLine
10
-58.297261392578292
20
7.820135406108454
30
-8.8817841970012523e-15
11
-58.297261392578285
21
9.4351249061084381
31
-8.8817841970012523e-15
0
LINE
5
292
100
AcDbEntity
8
0
100
AcDbLine
10
-58.297261392578285
20
9.4351249061084381
30
-8.8817841970012523e-15
11
-61.689330292578333
21
9.4351249061084257
31
-8.8817841970012507e-15
0
SPLINE
5
293
100
AcDbEntity
8
0
100
AcDbSpline
70
0
71
3
72
8
73
4
74
0
42
0.000000001
43
0.0000000001
44
0.0000000001
40
0
40
0
40
0
40
0
40
1
40
1
40
1
40
1
10
-61.689330292578347
20
9.4351249061084257
30
-8.8817841970012523e-15
10
-61.922787342578346
20
9.4351249061084257
30
-8.8817841970012523e-15
10
-62.104423642578311
20
9.6167241061084425
30
-8.8817841970012523e-15
10
-62.104423642578311
20
9.8437390061084411
30
-8.8817841970012523e-15
0
SPLINE
5
294
100
AcDbEntity
8
0
100
AcDbSpline
70
0
71
3
72
8
73
4
74
0
42
0.000000001
43
0.0000000001
44
0.0000000001
40
0
40
0
40
0
40
0
40
1
40
1
40
1
40
1
10
-62.104423642578311
20
9.8437390061084411
30
-8.8817841970012523e-15
10
-62.104423642578311
20
10.070719456108412
30
-8.8817841970012523e-15
10
-61.922787342578346
20
10.258832356108433
30
-8.8817841970012523e-15
10
-61.689330292578347
20
10.258832356108433
30
-8.8817841970012523e-15
0
LINE
5
295
100
AcDbEntity
8
0
100
AcDbLine
10
-61.689330292578347
20
10.258832356108433
30
-8.8817841970012523e-15
11
-58.297261392578299
21
10.258832356108448
31
-8.8817841970012539e-15
0
LINE
5
296
100
AcDbEntity
8
0
100
AcDbLine
10
-58.297261392578299
20
10.258832356108448
30
-8.8817841970012539e-15
11
-58.297261392578257
21
11.867271056108418
31
-8.8817841970012523e-15
0
SPLINE
5
297
100
AcDbEntity
8
0
100
AcDbSpline
70
0
71
3
72
8
73
4
74
0
42
0.000000001
43
0.0000000001
44
0.0000000001
40
-1
40
-1
40
-1
40
-1
40
0
40
0
40
0
40
0
10
-60.063390992578228
20
27.417918906108291
30
-8.8817841970012523e-15
10
-59.419809342578283
20
27.417918906108291
30
-8.8817841970012523e-15
10
-58.89814094257823
20
26.896157756108284
30
-8.8817841970012523e-15
10
-58.89814094257823
20
26.252613206108315
30
-8.8817841970012523e-15
0
SPLINE
5
298
100
AcDbEntity
8
0
100
AcDbSpline
70
0
71
3
72
8
73
4
74
0
42
0.000000001
43
0.0000000001
44
0.0000000001
40
-1
40
-1
40
-1
40
-1
40
0
40
0
40
0
40
0
10
-58.89814094257823
20
26.252613206108315
30
-8.8817841970012523e-15
10
-58.89814094257823
20
25.609034206108319
30
-8.8817841970012523e-15
10
-59.419809342578283
20
25.087363156108321
30
-8.8817841970012523e-15
10
-60.063390992578228
20
25.087363156108317
30
-8.8817841970012523e-15
0
SPLINE
5
299
100
AcDbEntity
8
0
100
AcDbSpline
70
0
71
3
72
8
73
4
74
0
42
0.000000001
43
0.0000000001
44
0.0000000001
40
-1
40
-1
40
-1
40
-1
40
0
40
0
40
0
40
0
10
-60.063390992578228
20
25.087363156108317
30
-8.8817841970012523e-15
10
-60.513702842578219
20
25.087363156108317
30
-8.8817841970012523e-15
10
-60.904098192578296
20
25.342942406108321
30
-8.8817841970012523e-15
10
-61.098112642578293
20
25.716815006108298
30
-8.8817841970012523e-15
0
SPLINE
5
300
100
AcDbEntity
8
0
100
AcDbSpline
70
0
71
3
72
8
73
4
74
0
42
0.000000001
43
0.0000000001
44
0.0000000001
40
-1
40
-1
40
-1
40
-1
40
0
40
0
40
0
40
0
10
-61.098112642578293
20
25.716815006108298
30
-8.8817841970012523e-15
10
-61.252824942578322
20
25.826355406108288
30
-8.8817841970012523e-15
10
-61.431434942578292
20
25.889017306108283
30
-8.8817841970012523e-15
10
-61.621784442578274
20
25.889017306108283
30
-8.8817841970012523e-15
0
SPLINE
5
301
100
AcDbEntity
8
0
100
AcDbSpline
70
0
71
3
72
8
73
4
74
0
42
0.000000001
43
0.0000000001
44
0.0000000001
40
-1
40
-1
40
-1
40
-1
40
0
40
0
40
0
40
0
10
-61.621784442578274
20
25.889017306108283
30
-8.8817841970012523e-15
10
-61.802662842578272
20
25.889017306108283
30
-8.8817841970012523e-15
10
-61.9727954925783
20
25.832193356108299
30
-8.8817841970012523e-15
10
-62.122054092578281
20
25.732556006108286
30
-8.8817841970012523e-15
0
SPLINE
5
302
100
AcDbEntity
8
0
100
AcDbSpline
70
0
71
3
72
8
73
4
74
0
42
0.000000001
43
0.0000000001
44
0.0000000001
40
-1
40
-1
40
-1
40
-1
40
0
40
0
40
0
40
0
10
-62.122054092578281
20
25.732556006108286
30
-8.8817841970012523e-15
10
-62.313174742578298
20
25.350113306108277
30
-8.8817841970012523e-15
10
-62.708191692578282
20
25.08736315610831
30
-8.8817841970012523e-15
10
-63.164810542578294
20
25.087363156108307
30
-8.8817841970012523e-15
0
SPLINE
5
303
100
AcDbEntity
8
0
100
AcDbSpline
70
0
71
3
72
8
73
4
74
0
42
0.000000001
43
0.0000000001
44
0.0000000001
40
-1
40
-1
40
-1
40
-1
40
0
40
0
40
0
40
0
10
-63.164810542578294
20
25.087363156108307
30
-8.8817841970012523e-15
10
-63.80839219257831
20
25.087363156108303
30
-8.8817841970012523e-15
10
-64.330116242578328
20
25.609034206108305
30
-8.8817841970012523e-15
10
-64.330116242578328
20
26.252613206108293
30
-8.8817841970012523e-15
0
SPLINE
5
304
100
AcDbEntity
8
0
100
AcDbSpline
70
0
71
3
72
8
73
4
74
0
42
0.000000001
43
0.0000000001
44
0.0000000001
40
-1
40
-1
40
-1
40
-1
40
0
40
0
40
0
40
0
10
-64.330116242578328
20
26.252613206108293
30
-8.8817841970012523e-15
10
-64.330116242578328
20
26.687006506108254
30
-8.8817841970012523e-15
10
-64.092249592578284
20
27.065649106108289
30
-8.8817841970012523e-15
10
-63.739807542578234
20
27.266042106108294
30
-8.8817841970012523e-15
0
SPLINE
5
305
100
AcDbEntity
8
0
100
AcDbSpline
70
0
71
3
72
8
73
4
74
0
42
0.000000001
43
0.0000000001
44
0.0000000001
40
-1
40
-1
40
-1
40
-1
40
0
40
0
40
0
40
0
10
-63.739807542578234
20
27.266042106108294
30
-8.8817841970012523e-15
10
-63.613601292578267
20
27.435554656108291
30
-8.8817841970012523e-15
10
-63.540540792578298
20
27.635216256108265
30
-8.8817841970012523e-15
10
-63.540540792578298
20
27.849124256108269
30
-8.8817841970012523e-15
0
SPLINE
5
306
100
AcDbEntity
8
0
100
AcDbSpline
70
0
71
3
72
8
73
4
74
0
42
0.000000001
43
0.0000000001
44
0.0000000001
40
-1
40
-1
40
-1
40
-1
40
0
40
0
40
0
40
0
10
-63.540540792578298
20
27.849124256108269
30
-8.8817841970012523e-15
10
-63.540540792578298
20
28.05350550610828
30
-8.8817841970012523e-15
10
-63.607458592578269
20
28.244737456108268
30
-8.8817841970012523e-15
10
-63.723470292578256
20
28.40924150610828
30
-8.8817841970012523e-15
0
SPLINE
5
307
100
AcDbEntity
8
0
100
AcDbSpline
70
0
71
3
72
8
73
4
74
0
42
0.000000001
43
0.0000000001
44
0.0000000001
40
-1
40
-1
40
-1
40
-1
40
0
40
0
40
0
40
0
10
-63.723470292578256
20
28.40924150610828
30
-8.8817841970012523e-15
10
-64.084956792578268
20
28.607093156108245
30
-8.8817841970012523e-15
10
-64.330116242578328
20
28.990900606108244
30
-8.8817841970012523e-15
10
-64.330116242578328
20
29.432048756108248
30
-8.8817841970012523e-15
0
SPLINE
5
308
100
AcDbEntity
8
0
100
AcDbSpline
70
0
71
3
72
8
73
4
74
0
42
0.000000001
43
0.0000000001
44
0.0000000001
40
-1
40
-1
40
-1
40
-1
40
0
40
0
40
0
40
0
10
-64.330116242578328
20
29.432048756108248
30
-8.8817841970012523e-15
10
-64.330116242578328
20
30.075593306108253
30
-8.8817841970012523e-15
10
-63.80839219257831
20
30.597298806108235
30
-8.8817841970012523e-15
10
-63.164810542578294
20
30.597298806108238
30
-8.8817841970012523e-15
0
SPLINE
5
309
100
AcDbEntity
8
0
100
AcDbSpline
70
0
71
3
72
8
73
4
74
0
42
0.000000001
43
0.0000000001
44
0.0000000001
40
-1
40
-1
40
-1
40
-1
40
0
40
0
40
0
40
0
10
-63.164810542578294
20
30.597298806108238
30
-8.8817841970012523e-15
10
-62.52123154257832
20
30.597298806108238
30
-8.8817841970012523e-15
10
-61.999507492578317
20
30.075593306108267
30
-8.8817841970012523e-15
10
-61.999507492578317
20
29.432048756108252
30
-8.8817841970012523e-15
0
SPLINE
5
310
100
AcDbEntity
8
0
100
AcDbSpline
70
0
71
3
72
8
73
4
74
0
42
0.000000001
43
0.0000000001
44
0.0000000001
40
-1
40
-1
40
-1
40
-1
40
0
40
0
40
0
40
0
10
-61.999507492578317
20
29.432048756108252
30
-8.8817841970012523e-15
10
-61.999507492578317
20
28.975496156108292
30
-8.8817841970012523e-15
10
-62.26223909257827
20
28.580500406108264
30
-8.8817841970012523e-15
10
-62.644591692578274
20
28.389345306108275
30
-8.8817841970012523e-15
0
SPLINE
5
311
100
AcDbEntity
8
0
100
AcDbSpline
70
0
71
3
72
8
73
4
74
0
42
0.000000001
43
0.0000000001
44
0.0000000001
40
-1
40
-1
40
-1
40
-1
40
0
40
0
40
0
40
0
10
-62.644591692578274
20
28.389345306108275
30
-8.8817841970012523e-15
10
-62.752065092578292
20
28.229417806108259
30
-8.8817841970012523e-15
10
-62.813343692578286
20
28.04525870610826
30
-8.8817841970012523e-15
10
-62.813343692578286
20
27.849124256108269
30
-8.8817841970012523e-15
0
SPLINE
5
312
100
AcDbEntity
8
0
100
AcDbSpline
70
0
71
3
72
8
73
4
74
0
42
0.000000001
43
0.0000000001
44
0.0000000001
40
-1
40
-1
40
-1
40
-1
40
0
40
0
40
0
40
0
10
-62.813343692578286
20
27.849124256108269
30
-8.8817841970012523e-15
10
-62.813343692578286
20
27.6441255561083
30
-8.8817841970012523e-15
10
-62.746052242578273
20
27.45233710610831
30
-8.8817841970012523e-15
10
-62.629388642578277
20
27.287499156108286
30
-8.8817841970012523e-15
0
SPLINE
5
313
100
AcDbEntity
8
0
100
AcDbSpline
70
0
71
3
72
8
73
4
74
0
42
0.000000001
43
0.0000000001
44
0.0000000001
40
-1
40
-1
40
-1
40
-1
40
0
40
0
40
0
40
0
10
-62.629388642578277
20
27.287499156108286
30
-8.8817841970012523e-15
10
-62.410564892578307
20
27.174050006108288
30
-8.8817841970012523e-15
10
-62.232347092578252
20
26.99342070610826
30
-8.8817841970012523e-15
10
-62.122054092578281
20
26.772726056108258
30
-8.8817841970012523e-15
0
SPLINE
5
314
100
AcDbEntity
8
0
100
AcDbSpline
70
0
71
3
72
8
73
4
74
0
42
0.000000001
43
0.0000000001
44
0.0000000001
40
-1
40
-1
40
-1
40
-1
40
0
40
0
40
0
40
0
10
-62.122054092578281
20
26.772726056108258
30
-8.8817841970012523e-15
10
-61.9727954925783
20
26.673088706108302
30
-8.8817841970012523e-15
10
-61.802662842578272
20
26.616211756108306
30
-8.8817841970012523e-15
10
-61.621784442578274
20
26.616211756108306
30
-8.8817841970012523e-15
0
SPLINE
5
315
100
AcDbEntity
8
0
100
AcDbSpline
70
0
71
3
72
8
73
4
74
0
42
0.000000001
43
0.0000000001
44
0.0000000001
40
-1
40
-1
40
-1
40
-1
40
0
40
0
40
0
40
0
10
-61.621784442578274
20
26.616211756108306
30
-8.8817841970012523e-15
10
-61.431411092578273
20
26.616211756108306
30
-8.8817841970012523e-15
10
-61.252838192578245
20
26.678955806108281
30
-8.8817841970012523e-15
10
-61.098112642578293
20
26.788522706108292
30
-8.8817841970012523e-15
0
SPLINE
5
316
100
AcDbEntity
8
0
100
AcDbSpline
70
0
71
3
72
8
73
4
74
0
42
0.000000001
43
0.0000000001
44
0.0000000001
40
-1
40
-1
40
-1
40
-1
40
0
40
0
40
0
40
0
10
-61.098112642578293
20
26.788522706108292
30
-8.8817841970012523e-15
10
-60.904090242578313
20
27.162358206108266
30
-8.8817841970012523e-15
10
-60.513686942578254
20
27.417918906108291
30
-8.8817841970012523e-15
10
-60.063390992578228
20
27.417918906108291
30
-8.8817841970012523e-15
0
SPLINE
5
317
100
AcDbEntity
8
0
100
AcDbSpline
70
0
71
3
72
8
73
4
74
0
42
0.000000001
43
0.0000000001
44
0.0000000001
40
0
40
0
40
0
40
0
40
1
40
1
40
1
40
1
10
-61.228712592578283
20
29.49763890610825
30
-8.8817841970012523e-15
10
-61.228712592578212
20
30.141183456108266
30
-8.8817841970012523e-15
10
-60.706993842578221
20
30.662902206108249
30
-8.8817841970012523e-15
10
-60.063414842578247
20
30.662902206108257
30
-8.8817841970012523e-15
0
SPLINE
5
318
100
AcDbEntity
8
0
100
AcDbSpline
70
0
71
3
72
8
73
4
74
0
42
0.000000001
43
0.0000000001
44
0.0000000001
40
0
40
0
40
0
40
0
40
1
40
1
40
1
40
1
10
-60.063414842578247
20
30.662902206108257
30
-8.8817841970012523e-15
10
-59.419833192578231
20
30.66290220610826
30
-8.8817841970012523e-15
10
-58.89811444257824
20
30.141183456108269
30
-8.8817841970012523e-15
10
-58.89811444257824
20
29.497638906108264
30
-8.8817841970012523e-15
0
SPLINE
5
319
100
AcDbEntity
8
0
100
AcDbSpline
70
0
71
3
72
8
73
4
74
0
42
0.000000001
43
0.0000000001
44
0.0000000001
40
0
40
0
40
0
40
0
40
1
40
1
40
1
40
1
10
-58.89811444257824
20
29.497638906108264
30
-8.8817841970012523e-15
10
-58.89811444257824
20
28.854057256108273
30
-8.8817841970012523e-15
10
-59.419833192578231
20
28.332338506108279
30
-8.8817841970012523e-15
10
-60.063414842578247
20
28.332338506108275
30
-8.8817841970012523e-15
0
SPLINE
5
320
100
AcDbEntity
8
0
100
AcDbSpline
70
0
71
3
72
8
73
4
74
0
42
0.000000001
43
0.0000000001
44
0.0000000001
40
0
40
0
40
0
40
0
40
1
40
1
40
1
40
1
10
-60.063414842578247
20
28.332338506108275
30
-8.8817841970012523e-15
10
-60.706993842578221
20
28.332338506108272
30
-8.8817841970012523e-15
10
-61.228712592578283
20
28.85405725610827
30
-8.8817841970012523e-15
10
-61.228712592578283
20
29.49763890610825
30
-8.8817841970012523e-15
0
SPLINE
5
321
100
AcDbEntity
8
0
100
AcDbSpline
70
0
71
3
72
8
73
4
74
0
42
0.000000001
43
0.0000000001
44
0.0000000001
40
0
40
0
40
0
40
0
40
0.90627142501046554
40
0.90627142501046554
40
0.90627142501046554
40
0.90627142501046554
10
-59.7889543425783
20
13.280908256108395
30
-8.8817841970012523e-15
10
-58.960196357862536
20
13.280908256108395
30
-8.8817841970012523e-15
10
-58.408430877470998
20
13.818930674969296
30
-8.8817841970012523e-15
10
-58.312279169887589
20
14.697066973893637
30
-8.8817841970012523e-15
0
LINE
5
322
100
AcDbEntity
8
0
100
AcDbLine
10
-58.312279169887589
20
14.697066973893637
30
-8.8817841970012523e-15
11
-57.484612977052159
21
14.697066973893643
31
-8.8817841970012507e-15
0
SPLINE
5
323
100
AcDbEntity
8
0
100
AcDbSpline
70
0
71
3
72
8
73
4
74
0
42
0.000000001
43
0.0000000001
44
0.0000000001
40
0.12592867493411058
40
0.12592867493411058
40
0.12592867493411058
40
0.12592867493411058
40
1
40
1
40
1
40
1
10
-57.484612977052159
20
14.697066973893607
30
-8.8817841970012523e-15
10
-57.53565452472742
20
14.056119304343234
30
-8.8817841970012523e-15
10
-57.762585924164007
20
13.515602923256665
30
-8.8817841970012523e-15
10
-58.14805579257829
20
13.118778606108394
30
-8.8817841970012523e-15
0
SPLINE
5
324
100
AcDbEntity
8
0
100
AcDbSpline
70
0
71
3
72
8
73
4
74
0
42
0.000000001
43
0.0000000001
44
0.0000000001
40
0
40
0
40
0
40
0
40
1
40
1
40
1
40
1
10
-58.14805579257829
20
13.118778606108394
30
-8.8817841970012523e-15
10
-58.362114842578272
20
12.90475400610844
30
-8.8817841970012523e-15
10
-58.615044092578302
20
12.736113306108416
30
-8.8817841970012523e-15
10
-58.900433192578284
20
12.625841506108406
30
-8.8817841970012523e-15
0
SPLINE
5
325
100
AcDbEntity
8
0
100
AcDbSpline
70
0
71
3
72
8
73
4
74
0
42
0.000000001
43
0.0000000001
44
0.0000000001
40
0
40
0
40
0
40
0
40
1
40
1
40
1
40
1
10
-58.900433192578284
20
12.625841506108406
30
-8.8817841970012523e-15
10
-59.172831992578317
20
12.515572356108427
30
-8.8817841970012523e-15
10
-59.477653542578295
20
12.457237906108396
30
-8.8817841970012523e-15
10
-59.7889543425783
20
12.457237906108393
30
-8.8817841970012523e-15
0
SPLINE
5
326
100
AcDbEntity
8
0
100
AcDbSpline
70
0
71
3
72
8
73
4
74
0
42
0.000000001
43
0.0000000001
44
0.0000000001
40
0
40
0
40
0
40
0
40
1
40
1
40
1
40
1
10
-59.7889543425783
20
12.457237906108393
30
-8.8817841970012523e-15
10
-60.106771492578275
20
12.457237906108391
30
-8.8817841970012523e-15
10
-60.405116442578269
20
12.515572356108422
30
-8.8817841970012523e-15
10
-60.683991842578287
20
12.625841506108401
30
-8.8817841970012523e-15
0
SPLINE
5
327
100
AcDbEntity
8
0
100
AcDbSpline
70
0
71
3
72
8
73
4
74
0
42
0.000000001
43
0.0000000001
44
0.0000000001
40
0
40
0
40
0
40
0
40
1
40
1
40
1
40
1
10
-60.683991842578287
20
12.625841506108401
30
-8.8817841970012523e-15
10
-60.969380942578269
20
12.736113306108409
30
-8.8817841970012523e-15
10
-61.222344642578264
20
12.904754006108432
30
-8.8817841970012523e-15
10
-61.429892642578295
20
13.118778606108382
30
-8.8817841970012523e-15
0
SPLINE
5
328
100
AcDbEntity
8
0
100
AcDbSpline
70
0
71
3
72
8
73
4
74
0
42
0.000000001
43
0.0000000001
44
0.0000000001
40
0
40
0
40
0
40
0
40
0.87407132506588958
40
0.87407132506588958
40
0.87407132506588958
40
0.87407132506588958
10
-61.429892642578295
20
13.118778606108382
30
-8.8817841970012523e-15
10
-61.815360194703516
20
13.515602923256649
30
-8.8817841970012523e-15
10
-62.042319646878155
20
14.056119304343218
30
-8.8817841970012523e-15
10
-62.093368296573544
20
14.697066973893591
30
-8.8817841970012523e-15
0
LINE
5
329
100
AcDbEntity
8
0
100
AcDbLine
10
-62.093368296573544
20
14.697066973893591
30
-8.8817841970012523e-15
11
-61.265856638201001
21
14.697066973893628
31
-8.8817841970012523e-15
0
SPLINE
5
330
100
AcDbEntity
8
0
100
AcDbSpline
70
0
71
3
72
8
73
4
74
0
42
0.000000001
43
0.0000000001
44
0.0000000001
40
0.093728574989535032
40
0.093728574989535032
40
0.093728574989535032
40
0.093728574989535032
40
1
40
1
40
1
40
1
10
-61.265856638201058
20
14.697066973893627
30
-8.8817841970012523e-15
10
-61.170639490938903
20
13.818930674969288
30
-8.8817841970012523e-15
10
-60.623584286424517
20
13.28090825610839
30
-8.8817841970012523e-15
10
-59.7889543425783
20
13.280908256108395
30
-8.8817841970012523e-15
0
SPLINE
5
331
100
AcDbEntity
8
0
100
AcDbSpline
70
0
71
3
72
8
73
4
74
0
42
0.000000001
43
0.0000000001
44
0.0000000001
40
0
40
0
40
0
40
0
40
1
40
1
40
1
40
1
10
-59.884174142578395
20
-1.7789622438914656
30
-8.8817841970012523e-15
10
-60.597943692578376
20
-1.778962243891469
30
-8.8817841970012523e-15
10
-61.176414842578389
20
-2.3574360438914881
30
-8.8817841970012523e-15
10
-61.176414842578389
20
-3.0711684938914741
30
-8.8817841970012523e-15
0
LINE
5
332
100
AcDbEntity
8
0
100
AcDbLine
10
-61.176414842578389
20
-3.0711684938914741
30
-8.8817841970012523e-15
11
-61.176414842578389
21
-4.1364992122320903
31
-8.8817841970012492e-15
0
LINE
5
333
100
AcDbEntity
8
0
100
AcDbLine
10
-61.176414842578389
20
-4.1364992122320903
30
-8.8817841970012492e-15
11
-62.110908192578378
21
-4.1364992122320849
31
-8.8817841970012523e-15
0
LINE
5
334
100
AcDbEntity
8
0
100
AcDbLine
10
-62.110908192578378
20
-4.1364992122320849
30
-8.8817841970012523e-15
11
-62.11090819257835
21
-3.141907593891486
31
-8.8817841970012555e-15
0
SPLINE
5
335
100
AcDbEntity
8
0
100
AcDbSpline
70
0
71
3
72
8
73
4
74
0
42
0.000000001
43
0.0000000001
44
0.0000000001
40
0
40
0
40
0
40
0
40
1
40
1
40
1
40
1
10
-62.11090819257835
20
-3.1419075938914833
30
-8.8817841970012523e-15
10
-62.11090819257835
20
-1.9115364438914684
30
-8.8817841970012523e-15
10
-61.113514442578321
20
-0.9138856438914631
30
-8.8817841970012523e-15
10
-59.882849142578294
20
-0.9138856438914591
30
-8.8817841970012523e-15
0
LINE
5
336
100
AcDbEntity
8
0
100
AcDbLine
10
-59.882849142578294
20
-0.9138856438914591
30
-8.8817841970012523e-15
11
-59.666397142578312
21
-0.91388564389145843
31
-8.8817841970012523e-15
0
SPLINE
5
337
100
AcDbEntity
8
0
100
AcDbSpline
70
0
71
3
72
8
73
4
74
0
42
0.000000001
43
0.0000000001
44
0.0000000001
40
0
40
0
40
0
40
0
40
1
40
1
40
1
40
1
10
-59.666397142578312
20
-0.91388564389145888
30
-8.8817841970012523e-15
10
-58.435877592578329
20
-0.91388564389145488
30
-8.8817841970012523e-15
10
-57.438486492578349
20
-1.9113535938914783
30
-8.8817841970012523e-15
10
-57.438486492578349
20
-3.1419075938914673
30
-8.8817841970012523e-15
0
LINE
5
338
100
AcDbEntity
8
0
100
AcDbLine
10
-57.438486492578349
20
-3.1419075938914682
30
-8.8817841970012523e-15
11
-57.438486492578349
21
-4.1364992122321178
31
-8.8817841970012523e-15
0
LINE
5
339
100
AcDbEntity
8
0
100
AcDbLine
10
-57.438486492578349
20
-4.1364992122321178
30
-8.8817841970012523e-15
11
-58.372977192578368
21
-4.1364992122321107
31
-8.8817841970012523e-15
0
LINE
5
340
100
AcDbEntity
8
0
100
AcDbLine
10
-58.372977192578368
20
-4.1364992122321107
30
-8.8817841970012523e-15
11
-58.372977192578368
21
-3.0711684938914665
31
-8.8817841970012539e-15
0
SPLINE
5
341
100
AcDbEntity
8
0
100
AcDbSpline
70
0
71
3
72
8
73
4
74
0
42
0.000000001
43
0.0000000001
44
0.0000000001
40
0
40
0
40
0
40
0
40
1
40
1
40
1
40
1
10
-58.372977192578368
20
-3.0711684938914652
30
-8.8817841970012523e-15
10
-58.372977192578368
20
-2.3574360438914796
30
-8.8817841970012523e-15
10
-58.951448342578352
20
-1.7789622438914645
30
-8.8817841970012523e-15
10
-59.665146342578382
20
-1.7789622438914654
30
-8.8817841970012523e-15
0
LINE
5
342
100
AcDbEntity
8
0
100
AcDbLine
10
-59.665146342578396
20
-1.7789622438914654
30
-8.8817841970012523e-15
11
-59.884174142578395
21
-1.7789622438914656
31
-8.8817841970012523e-15
0
LINE
5
343
100
AcDbEntity
8
0
100
AcDbLine
10
-60.241831392578405
20
-15.868765793891361
30
-8.8817841970012523e-15
11
-60.241831392578405
21
-15.468395843891374
31
-8.8817841970012523e-15
0
SPLINE
5
344
100
AcDbEntity
8
0
100
AcDbSpline
70
0
71
3
72
8
73
4
74
0
42
0.000000001
43
0.0000000001
44
0.0000000001
40
0
40
0
40
0
40
0
40
1
40
1
40
1
40
1
10
-60.241831392578405
20
-15.468395843891376
30
-8.8817841970012523e-15
10
-60.241831392578405
20
-15.429199693891354
30
-8.8817841970012523e-15
10
-60.291555992578417
20
-15.412340393891382
30
-8.8817841970012523e-15
10
-60.315663042578372
20
-15.443332143891373
30
-8.8817841970012523e-15
0
LINE
5
345
100
AcDbEntity
8
0
100
AcDbLine
10
-60.315663042578365
20
-15.443332143891373
30
-8.8817841970012523e-15
11
-61.670327142578415
21
-17.200759143891378
31
-8.8817841970012507e-15
0
SPLINE
5
346
100
AcDbEntity
8
0
100
AcDbSpline
70
0
71
3
72
8
73
4
74
0
42
0.000000001
43
0.0000000001
44
0.0000000001
40
0
40
0
40
0
40
0
40
1
40
1
40
1
40
1
10
-61.670327142578415
20
-17.200759143891375
30
-8.8817841970012523e-15
10
-61.711107992578405
20
-17.253759143891351
30
-8.8817841970012523e-15
10
-61.769850542578425
20
-17.292992393891339
30
-8.8817841970012523e-15
10
-61.836026342578435
20
-17.301861943891335
30
-8.8817841970012523e-15
0
SPLINE
5
347
100
AcDbEntity
8
0
100
AcDbSpline
70
0
71
3
72
8
73
4
74
0
42
0.000000001
43
0.0000000001
44
0.0000000001
40
0
40
0
40
0
40
0
40
1
40
1
40
1
40
1
10
-61.836026342578435
20
-17.301861943891335
30
-8.8817841970012523e-15
10
-61.985565842578424
20
-17.322031093891336
30
-8.8817841970012523e-15
10
-62.113319692578429
20
-17.206279093891347
30
-8.8817841970012523e-15
10
-62.113319692578429
20
-17.060677493891355
30
-8.8817841970012523e-15
0
LINE
5
348
100
AcDbEntity
8
0
100
AcDbLine
10
-62.113319692578422
20
-17.060677493891355
30
-8.8817841970012523e-15
11
-62.113319692578429
21
-16.666561543891344
31
-8.8817841970012523e-15
0
SPLINE
5
349
100
AcDbEntity
8
0
100
AcDbSpline
70
0
71
3
72
8
73
4
74
0
42
0.000000001
43
0.0000000001
44
0.0000000001
40
0
40
0
40
0
40
0
40
1
40
1
40
1
40
1
10
-62.113319692578429
20
-16.666561543891348
30
-8.8817841970012523e-15
10
-62.113319692578429
20
-16.469801693891345
30
-8.8817841970012523e-15
10
-62.048097892578383
20
-16.278339193891341
30
-8.8817841970012523e-15
10
-61.927891242578411
20
-16.122540393891374
30
-8.8817841970012523e-15
0
LINE
5
350
100
AcDbEntity
8
0
100
AcDbLine
10
-61.927891242578411
20
-16.122540393891374
30
-8.8817841970012523e-15
11
-60.427257192578423
21
-14.17593519389137
31
-8.8817841970012539e-15
0
SPLINE
5
351
100
AcDbEntity
8
0
100
AcDbSpline
70
0
71
3
72
8
73
4
74
0
42
0.000000001
43
0.0000000001
44
0.0000000001
40
0
40
0
40
0
40
0
40
1
40
1
40
1
40
1
10
-60.427257192578423
20
-14.175935193891366
30
-8.8817841970012523e-15
10
-60.307124742578402
20
-14.020062193891372
30
-8.8817841970012523e-15
10
-60.241905592578398
20
-13.828748093891363
30
-8.8817841970012523e-15
10
-60.241905592578362
20
-13.631911393891363
30
-8.8817841970012523e-15
0
LINE
5
352
100
AcDbEntity
8
0
100
AcDbLine
10
-60.241905592578362
20
-13.631911393891365
30
-8.8817841970012523e-15
11
-60.241905592578355
21
-10.458504593891401
31
-8.8817841970012555e-15
0
SPLINE
5
353
100
AcDbEntity
8
0
100
AcDbSpline
70
0
71
3
72
8
73
4
74
0
42
0.000000001
43
0.0000000001
44
0.0000000001
40
0
40
0
40
0
40
0
40
1
40
1
40
1
40
1
10
-60.241905592578362
20
-10.458504593891401
30
-8.8817841970012523e-15
10
-60.241905592578362
20
-10.41761244389142
30
-8.8817841970012523e-15
10
-60.275104792578354
20
-10.384341693891397
30
-8.8817841970012523e-15
10
-60.316142692578339
20
-10.384341693891397
30
-8.8817841970012523e-15
0
LINE
5
354
100
AcDbEntity
8
0
100
AcDbLine
10
-60.316142692578339
20
-10.384341693891397
30
-8.8817841970012523e-15
11
-61.665247092578362
21
-10.3843416938914
31
-8.8817841970012523e-15
0
SPLINE
5
355
100
AcDbEntity
8
0
100
AcDbSpline
70
0
71
3
72
8
73
4
74
0
42
0.000000001
43
0.0000000001
44
0.0000000001
40
0
40
0
40
0
40
0
40
1
40
1
40
1
40
1
10
-61.665247092578369
20
-10.384341693891399
30
-8.8817841970012523e-15
10
-61.911440042578377
20
-10.384341693891404
30
-8.8817841970012523e-15
10
-62.1109267425784
20
-10.184854993891401
30
-8.8817841970012523e-15
10
-62.1109267425784
20
-9.9386620438914068
30
-8.8817841970012523e-15
0
LINE
5
356
100
AcDbEntity
8
0
100
AcDbLine
10
-62.1109267425784
20
-9.9386620438914051
30
-8.8817841970012523e-15
11
-62.1109267425784
21
-9.6677737438913791
31
-8.8817841970012523e-15
0
SPLINE
5
357
100
AcDbEntity
8
0
100
AcDbSpline
70
0
71
3
72
8
73
4
74
0
42
0.000000001
43
0.0000000001
44
0.0000000001
40
0
40
0
40
0
40
0
40
1
40
1
40
1
40
1
10
-62.1109267425784
20
-9.6677737438914217
30
-8.8817841970012523e-15
10
-62.1109267425784
20
-9.5858092438914273
30
-8.8817841970012523e-15
10
-62.044454142578388
20
-9.519373743891439
30
-8.8817841970012523e-15
10
-61.962415442578362
20
-9.519373743891439
30
-8.8817841970012523e-15
0
LINE
5
358
100
AcDbEntity
8
0
100
AcDbLine
10
-61.962415442578362
20
-9.519373743891439
30
-8.8817841970012523e-15
11
-59.82725479257838
21
-9.5193737438914283
31
-8.8817841970012539e-15
0
SPLINE
5
359
100
AcDbEntity
8
0
100
AcDbSpline
70
0
71
3
72
8
73
4
74
0
42
0.000000001
43
0.0000000001
44
0.0000000001
40
0
40
0
40
0
40
0
40
1
40
1
40
1
40
1
10
-59.82725479257838
20
-9.5193737438914265
30
-8.8817841970012523e-15
10
-59.581136042578329
20
-9.5193737438914265
30
-8.8817841970012523e-15
10
-59.381797742578371
20
-9.7187491438913991
30
-8.8817841970012523e-15
10
-59.381797742578371
20
-9.9649420938913984
30
-8.8817841970012523e-15
0
LINE
5
360
100
AcDbEntity
8
0
100
AcDbLine
10
-59.381797742578371
20
-9.9649420938913984
30
-8.8817841970012523e-15
11
-59.381797742578392
21
-15.972078693891342
31
-8.8817841970012444e-15
0
SPLINE
5
361
100
AcDbEntity
8
0
100
AcDbSpline
70
0
71
3
72
8
73
4
74
0
42
0.000000001
43
0.0000000001
44
0.0000000001
40
0
40
0
40
0
40
0
40
1
40
1
40
1
40
1
10
-59.381797742578406
20
-15.972078693891341
30
-8.8817841970012523e-15
10
-59.381797742578406
20
-16.234871243891334
30
-8.8817841970012523e-15
10
-59.164791892578393
20
-16.447091193891335
30
-8.8817841970012523e-15
10
-58.900086042578408
20
-16.439141193891356
30
-8.8817841970012523e-15
0
SPLINE
5
362
100
AcDbEntity
8
0
100
AcDbSpline
70
0
71
3
72
8
73
4
74
0
42
0.000000001
43
0.0000000001
44
0.0000000001
40
0
40
0
40
0
40
0
40
1
40
1
40
1
40
1
10
-58.900086042578408
20
-16.439141193891356
30
-8.8817841970012523e-15
10
-58.644472342578389
20
-16.431411143891353
30
-8.8817841970012523e-15
10
-58.372958642578361
20
-16.208445443891367
30
-8.8817841970012523e-15
10
-58.372958642578361
20
-15.952497843891337
30
-8.8817841970012523e-15
0
LINE
5
363
100
AcDbEntity
8
0
100
AcDbLine
10
-58.372958642578361
20
-15.952497843891333
30
-8.8817841970012523e-15
11
-58.37295864257834
21
-9.9649420938913913
31
-8.8817841970012602e-15
0
SPLINE
5
364
100
AcDbEntity
8
0
100
AcDbSpline
70
0
71
3
72
8
73
4
74
0
42
0.000000001
43
0.0000000001
44
0.0000000001
40
0
40
0
40
0
40
0
40
1
40
1
40
1
40
1
10
-58.372958642578325
20
-9.9649420938913931
30
-8.8817841970012523e-15
10
-58.372958642578325
20
-9.7187491438913938
30
-8.8817841970012523e-15
10
-58.17350904257836
20
-9.5193737438914212
30
-8.8817841970012523e-15
10
-57.927353192578366
20
-9.5193737438914212
30
-8.8817841970012523e-15
0
LINE
5
365
100
AcDbEntity
8
0
100
AcDbLine
10
-57.927353192578366
20
-9.5193737438914212
30
-8.8817841970012523e-15
11
-57.587050792578367
21
-9.5193737438914194
31
-8.8817841970012523e-15
0
SPLINE
5
366
100
AcDbEntity
8
0
100
AcDbSpline
70
0
71
3
72
8
73
4
74
0
42
0.000000001
43
0.0000000001
44
0.0000000001
40
0
40
0
40
0
40
0
40
1
40
1
40
1
40
1
10
-57.587050792578367
20
-9.5193737438914194
30
-8.8817841970012523e-15
10
-57.505049192578355
20
-9.5193737438914194
30
-8.8817841970012523e-15
10
-57.43850239257835
20
-9.5858092438914113
30
-8.8817841970012523e-15
10
-57.43850239257835
20
-9.6677737438914058
30
-8.8817841970012523e-15
0
LINE
5
367
100
AcDbEntity
8
0
100
AcDbLine
10
-57.43850239257835
20
-9.6677737438914058
30
-8.8817841970012523e-15
11
-57.438502392578371
21
-15.902553293891344
31
-8.8817841970012444e-15
0
SPLINE
5
368
100
AcDbEntity
8
0
100
AcDbSpline
70
0
71
3
72
8
73
4
74
0
42
0.000000001
43
0.0000000001
44
0.0000000001
40
0
40
0
40
0
40
0
40
1
40
1
40
1
40
1
10
-57.438502392578386
20
-15.902553293891344
30
-8.8817841970012523e-15
10
-57.438502392578386
20
-16.693578293891328
30
-8.8817841970012523e-15
10
-58.168100392578381
20
-17.331711543891331
30
-8.8817841970012523e-15
10
-58.965564892578442
20
-17.303261143891337
30
-8.8817841970012523e-15
0
SPLINE
5
369
100
AcDbEntity
8
0
100
AcDbSpline
70
0
71
3
72
8
73
4
74
0
42
0.000000001
43
0.0000000001
44
0.0000000001
40
0
40
0
40
0
40
0
40
1
40
1
40
1
40
1
10
-58.965564892578442
20
-17.303261143891337
30
-8.8817841970012523e-15
10
-59.725118492578424
20
-17.276247043891331
30
-8.8817841970012523e-15
10
-60.241831392578405
20
-16.62883614389137
30
-8.8817841970012523e-15
10
-60.241831392578405
20
-15.868765793891361
30
-8.8817841970012523e-15
0
LINE
5
370
100
AcDbEntity
8
0
100
AcDbLine
10
-59.455934142578435
20
-33.301493993891228
30
-8.8817841970012523e-15
11
-59.722039192578443
21
-33.301493993891228
31
-8.8817841970012523e-15
0
SPLINE
5
371
100
AcDbEntity
8
0
100
AcDbSpline
70
0
71
3
72
8
73
4
74
0
42
0.000000001
43
0.0000000001
44
0.0000000001
40
0
40
0
40
0
40
0
40
1
40
1
40
1
40
1
10
-59.722039192578443
20
-33.301493993891228
30
-8.8817841970012523e-15
10
-59.968195042578436
20
-33.301493993891228
30
-8.8817841970012523e-15
10
-60.167570442578445
20
-33.102081493891198
30
-8.8817841970012523e-15
10
-60.167570442578445
20
-32.855814343891225
30
-8.8817841970012523e-15
0
LINE
5
372
100
AcDbEntity
8
0
100
AcDbLine
10
-60.167570442578437
20
-32.855814343891225
30
-8.8817841970012523e-15
11
-60.167570442578437
21
-28.526162193891238
31
-8.8817841970012586e-15
0
SPLINE
5
373
100
AcDbEntity
8
0
100
AcDbSpline
70
0
71
3
72
8
73
4
74
0
42
0.000000001
43
0.0000000001
44
0.0000000001
40
0
40
0
40
0
40
0
40
1
40
1
40
1
40
1
10
-60.167570442578445
20
-28.526162193891246
30
-8.8817841970012523e-15
10
-60.167570442578445
20
-28.297159793891279
30
-8.8817841970012523e-15
10
-59.982070442578468
20
-28.111365643891283
30
-8.8817841970012523e-15
10
-59.75317669257845
20
-28.111365643891283
30
-8.8817841970012523e-15
0
SPLINE
5
374
100
AcDbEntity
8
0
100
AcDbSpline
70
0
71
3
72
8
73
4
74
0
42
0.000000001
43
0.0000000001
44
0.0000000001
40
0
40
0
40
0
40
0
40
1
40
1
40
1
40
1
10
-59.75317669257845
20
-28.111365643891283
30
-8.8817841970012523e-15
10
-59.506946642578427
20
-28.111365643891283
30
-8.8817841970012523e-15
10
-59.307425492578439
20
-28.310960993891282
30
-8.8817841970012523e-15
10
-59.307425492578439
20
-28.557116843891276
30
-8.8817841970012523e-15
0
LINE
5
375
100
AcDbEntity
8
0
100
AcDbLine
10
-59.307425492578432
20
-28.557116843891272
30
-8.8817841970012523e-15
11
-59.30742549257846
21
-33.152908493891204
31
-8.8817841970012444e-15
0
SPLINE
5
376
100
AcDbEntity
8
0
100
AcDbSpline
70
0
71
3
72
8
73
4
74
0
42
0.000000001
43
0.0000000001
44
0.0000000001
40
0
40
0
40
0
40
0
40
1
40
1
40
1
40
1
10
-59.307425492578439
20
-33.152908493891204
30
-8.8817841970012523e-15
10
-59.307425492578439
20
-33.234949843891201
30
-8.8817841970012523e-15
10
-59.37389544257848
20
-33.301493993891228
30
-8.8817841970012523e-15
10
-59.455934142578435
20
-33.301493993891228
30
-8.8817841970012523e-15
0
CIRCLE
5
377
100
AcDbEntity
8
0
100
AcDbCircle
10
-24.244178297264906
20
33.597067364530361
30
-8.8817841970012523e-15
40
1.650000000000005
210
-2.7440526069158545e-45
220
7.8886090522101268e-31
230
1
0
CIRCLE
5
378
100
AcDbEntity
8
0
100
AcDbCircle
10
-24.244178297266078
20
-33.402932635468098
30
-8.8817841970012523e-15
40
1.650000000000005
210
-2.7440526069158557e-45
220
7.8886090522101268e-31
230
1
0
SPLINE
5
379
100
AcDbEntity
8
0
100
AcDbSpline
70
0
71
3
72
9
73
5
74
0
42
0.000000001
43
0.0000000001
44
0.0000000001
40
0
40
0
40
0
40
0
40
0.049801215614438704
40
0.10743359215474615
40
0.10743359215474615
40
0.10743359215474615
40
0.10743359215474615
10
35.021306103066159
20
46.845767797971156
30
-8.8817841970012523e-15
10
35.123244546994215
20
46.710029081793238
30
-8.8817841970012523e-15
10
35.343151090935734
20
46.417206954992807
30
-8.8817841970012523e-15
10
35.361474856782749
20
46.049933270022777
30
-8.8817841970012523e-15
10
35.371304577187253
20
45.85291058018246
30
-8.8817841970012523e-15
0
LINE
5
380
100
AcDbEntity
8
0
100
AcDbLine
10
35.371304577187253
20
45.85291058018246
30
-8.8817841970012523e-15
11
35.371304577187232
21
38.538624348187895
31
-8.8817841970012444e-15
0
SPLINE
5
381
100
AcDbEntity
8
0
100
AcDbSpline
70
0
71
3
72
9
73
5
74
0
42
0.000000001
43
0.0000000001
44
0.0000000001
40
0
40
0
40
0
40
0
40
0.057632376540307458
40
0.10743354150228547
40
0.10743354150228547
40
0.10743354150228547
40
0.10743354150228547
10
35.371304577187253
20
38.538624348187895
30
-8.8817841970012523e-15
10
35.361474893523884
20
38.341601637846409
30
-8.8817841970012523e-15
10
35.343151204805856
20
37.974328087820943
30
-8.8817841970012523e-15
10
35.12324454505756
20
37.681506239481038
30
-8.8817841970012523e-15
10
35.021306103066159
20
37.545767726445632
30
-8.8817841970012523e-15
0
SPLINE
5
382
100
AcDbEntity
8
0
100
AcDbSpline
70
0
71
3
72
9
73
5
74
0
42
0.000000001
43
0.0000000001
44
0.0000000001
40
0
40
0
40
0
40
0
40
0.049801278448955912
40
0.10743354621134757
40
0.10743354621134757
40
0.10743354621134757
40
0.10743354621134757
10
35.021306103066159
20
37.545767726445632
30
-8.8817841970012523e-15
10
34.885567436073757
20
37.443828826849831
30
-8.8817841970012523e-15
10
34.592745910057339
20
37.223921671420364
30
-8.8817841970012523e-15
10
34.225472390735554
20
37.205597426979757
30
-8.8817841970012523e-15
10
34.028450077370351
20
37.195767464185195
30
-8.8817841970012523e-15
0
SPLINE
5
383
100
AcDbEntity
8
0
100
AcDbSpline
70
0
71
3
72
9
73
5
74
0
42
0.000000001
43
0.0000000001
44
0.0000000001
40
0
40
0
40
0
40
0
40
0.057632503417087082
40
0.10743378186604299
40
0.10743378186604299
40
0.10743378186604299
40
0.10743378186604299
10
34.028450077370351
20
37.195767464185195
30
-8.8817841970012523e-15
10
33.831426921623731
20
37.205597279272489
30
-8.8817841970012523e-15
10
33.464152528147288
20
37.223921213636892
30
-8.8817841970012523e-15
10
33.171330342509606
20
37.443828834635482
30
-8.8817841970012523e-15
10
33.035591667488752
20
37.545767726445632
30
-8.8817841970012523e-15
0
SPLINE
5
384
100
AcDbEntity
8
0
100
AcDbSpline
70
0
71
3
72
9
73
5
74
0
42
0.000000001
43
0.0000000001
44
0.0000000001
40
0
40
0
40
0
40
0
40
0.049801290631346321
40
0.10743366717165378
40
0.10743366717165378
40
0.10743366717165378
40
0.10743366717165378
10
33.035591667488752
20
37.545767726445632
30
-8.8817841970012523e-15
10
32.93365224176415
20
37.681506136296818
30
-8.8817841970012523e-15
10
32.713743757543583
20
37.97432736565635
30
-8.8817841970012523e-15
10
32.695420337316278
20
38.341601535703397
30
-8.8817841970012523e-15
10
32.685590809181868
20
38.538624348187888
30
-8.8817841970012523e-15
0
LINE
5
385
100
AcDbEntity
8
0
100
AcDbLine
10
32.685590809181868
20
38.538624348187888
30
-8.8817841970012523e-15
11
32.685590809181889
21
45.85291058018246
31
-8.8817841970012602e-15
0
SPLINE
5
386
100
AcDbEntity
8
0
100
AcDbSpline
70
0
71
3
72
9
73
5
74
0
42
0.000000001
43
0.0000000001
44
0.0000000001
40
0
40
0
40
0
40
0
40
0.057632376540307458
40
0.10743371782398665
40
0.10743371782398665
40
0.10743371782398665
40
0.10743371782398665
10
32.685590809181868
20
45.852910580182453
30
-8.8817841970012523e-15
10
32.695420374057413
20
46.049933372165597
30
-8.8817841970012523e-15
10
32.71374387141374
20
46.417207677156412
30
-8.8817841970012523e-15
10
32.933652239827424
20
46.710029184977358
30
-8.8817841970012523e-15
10
33.035591667488752
20
46.845767797971135
30
-8.8817841970012523e-15
0
SPLINE
5
387
100
AcDbEntity
8
0
100
AcDbSpline
70
0
71
3
72
9
73
5
74
0
42
0.000000001
43
0.0000000001
44
0.0000000001
40
0
40
0
40
0
40
0
40
0.049801278448955912
40
0.10743377281663244
40
0.10743377281663244
40
0.10743377281663244
40
0.10743377281663244
10
33.035591667488752
20
46.845767797971135
30
-8.8817841970012523e-15
10
33.171330336089
20
46.947706729872792
30
-8.8817841970012523e-15
10
33.464152483210682
20
47.16761441883542
30
-8.8817841970012523e-15
10
33.831426915267926
20
47.185937895399029
30
-8.8817841970012523e-15
10
34.028450077370387
20
47.195767464185117
30
-8.8817841970012523e-15
0
SPLINE
5
388
100
AcDbEntity
8
0
100
AcDbSpline
70
0
71
3
72
9
73
5
74
0
42
0.000000001
43
0.0000000001
44
0.0000000001
40
0
40
0
40
0
40
0
40
0.057632041157263753
40
0.1074334593817434
40
0.1074334593817434
40
0.1074334593817434
40
0.1074334593817434
10
34.028450077370387
20
47.195767464185117
30
-8.8817841970012523e-15
10
34.225471408924228
20
47.185936882656264
30
-8.8817841970012523e-15
10
34.592744245280436
20
47.16761142757656
30
-8.8817841970012523e-15
10
34.885566573519178
20
46.947706181139573
30
-8.8817841970012523e-15
10
35.021306103066159
20
46.845767797971156
30
-8.8817841970012523e-15
0
LINE
5
389
100
AcDbEntity
8
0
100
AcDbLine
10
20.629879062966047
20
47.195767464185053
30
-8.8817841970012523e-15
11
20.62987906296625
21
44.824338559200108
31
-8.8817841970012492e-15
0
LINE
5
390
100
AcDbEntity
8
0
100
AcDbLine
10
20.62987906296625
20
44.824338559200108
30
-8.8817841970012492e-15
11
20.944162433937692
21
44.824339451337174
31
-8.8817841970012523e-15
0
SPLINE
5
391
100
AcDbEntity
8
0
100
AcDbSpline
70
0
71
3
72
9
73
5
74
0
42
0.000000001
43
0.0000000001
44
0.0000000001
40
0
40
0
40
0
40
0
40
0.11610915042057635
40
0.21655122283891398
40
0.21655122283891398
40
0.21655122283891398
40
0.21655122283891398
10
20.944162433937695
20
44.824339451337174
30
-8.8817841970012523e-15
10
20.546269755206723
20
44.803594071169819
30
-8.8817841970012523e-15
10
19.804173668673172
20
44.764902569016634
30
-8.8817841970012523e-15
10
19.226425134132253
20
44.3029094186018
30
-8.8817841970012523e-15
10
18.958450382546086
20
44.088625015759781
30
-8.8817841970012523e-15
0
SPLINE
5
392
100
AcDbEntity
8
0
100
AcDbSpline
70
0
71
3
72
9
73
5
74
0
42
0.000000001
43
0.0000000001
44
0.0000000001
40
0
40
0
40
0
40
0
40
0.098584661077114819
40
0.20515112585256834
40
0.20515112585256834
40
0.20515112585256834
40
0.20515112585256834
10
18.958450382546086
20
44.088625015759781
30
-8.8817841970012523e-15
10
18.758532656845958
20
43.818834696801588
30
-8.8817841970012523e-15
10
18.342511076438178
20
43.25741076863995
30
-8.8817841970012523e-15
10
18.296589058755778
20
42.558710003232534
30
-8.8817841970012523e-15
10
18.272734707192079
20
42.195767464185096
30
-8.8817841970012523e-15
0
SPLINE
5
393
100
AcDbEntity
8
0
100
AcDbSpline
70
0
71
3
72
9
73
5
74
0
42
0.000000001
43
0.0000000001
44
0.0000000001
40
0
40
0
40
0
40
0
40
0.10656646477545352
40
0.20515112585256834
40
0.20515112585256834
40
0.20515112585256834
40
0.20515112585256834
10
18.272734707192079
20
42.195767464185096
30
-8.8817841970012523e-15
10
18.296589058755778
20
41.832824925137679
30
-8.8817841970012523e-15
10
18.342511076438178
20
41.134124159730248
30
-8.8817841970012523e-15
10
18.758532656845958
20
40.572700231568604
30
-8.8817841970012523e-15
10
18.958450382546086
20
40.302909912610403
30
-8.8817841970012523e-15
0
SPLINE
5
394
100
AcDbEntity
8
0
100
AcDbSpline
70
0
71
3
72
9
73
5
74
0
42
0.000000001
43
0.0000000001
44
0.0000000001
40
0
40
0
40
0
40
0
40
0.10044207241833764
40
0.21655122283891398
40
0.21655122283891398
40
0.21655122283891398
40
0.21655122283891398
10
18.958450382546086
20
40.302909912610403
30
-8.8817841970012523e-15
10
19.226425134132253
20
40.088625509768399
30
-8.8817841970012523e-15
10
19.804173668673172
20
39.626632359353565
30
-8.8817841970012523e-15
10
20.546269755206723
20
39.587940857200401
30
-8.8817841970012523e-15
10
20.944162433937695
20
39.567195477033025
30
-8.8817841970012523e-15
0
LINE
5
395
100
AcDbEntity
8
0
100
AcDbLine
10
20.944162433937692
20
39.567195477033032
30
-8.8817841970012523e-15
11
20.629879062966229
21
39.567194584895951
31
-8.8817841970012507e-15
0
LINE
5
396
100
AcDbEntity
8
0
100
AcDbLine
10
20.629879062966229
20
39.567194584895951
30
-8.8817841970012507e-15
11
20.629879062966001
21
37.195767464185145
31
-8.8817841970012492e-15
0
SPLINE
5
397
100
AcDbEntity
8
0
100
AcDbSpline
70
0
71
3
72
9
73
5
74
0
42
0.000000001
43
0.0000000001
44
0.0000000001
40
0
40
0
40
0
40
0
40
0.21871144275566512
40
0.409342258006408
40
0.409342258006408
40
0.409342258006408
40
0.409342258006408
10
20.629879062966012
20
37.195767464185153
30
-8.8817841970012523e-15
10
19.880539601222821
20
37.236325748397839
30
-8.8817841970012523e-15
10
18.478069280426993
20
37.312234989502493
30
-8.8817841970012523e-15
10
17.387675691948647
20
38.18794766107613
30
-8.8817841970012523e-15
10
16.879879062966001
20
38.59576732113397
30
-8.8817841970012523e-15
0
SPLINE
5
398
100
AcDbEntity
8
0
100
AcDbSpline
70
0
71
3
72
9
73
5
74
0
42
0.000000001
43
0.0000000001
44
0.0000000001
40
0
40
0
40
0
40
0
40
0.18764596938769934
40
0.3902981597067553
40
0.3902981597067553
40
0.3902981597067553
40
0.3902981597067553
10
16.879879062966001
20
38.59576732113397
30
-8.8817841970012523e-15
10
16.498783744114768
20
39.108915766606785
30
-8.8817841970012523e-15
10
15.706116562901983
20
40.176249611175585
30
-8.8817841970012523e-15
10
15.618320648157834
20
41.505558382964395
30
-8.8817841970012523e-15
10
15.572734897926935
20
42.195767464185096
30
-8.8817841970012523e-15
0
SPLINE
5
399
100
AcDbEntity
8
0
100
AcDbSpline
70
0
71
3
72
9
73
5
74
0
42
0.000000001
43
0.0000000001
44
0.0000000001
40
0
40
0
40
0
40
0
40
0.20265219031905599
40
0.3902981597067553
40
0.3902981597067553
40
0.3902981597067553
40
0.3902981597067553
10
15.572734897926935
20
42.195767464185096
30
-8.8817841970012523e-15
10
15.618320648157834
20
42.885976545405811
30
-8.8817841970012523e-15
10
15.706116562901947
20
44.215285317194592
30
-8.8817841970012523e-15
10
16.498783744114768
20
45.282619161763414
30
-8.8817841970012523e-15
10
16.879879062966001
20
45.795767607236201
30
-8.8817841970012523e-15
0
SPLINE
5
400
100
AcDbEntity
8
0
100
AcDbSpline
70
0
71
3
72
9
73
5
74
0
42
0.000000001
43
0.0000000001
44
0.0000000001
40
0
40
0
40
0
40
0
40
0.19063074958993823
40
0.40934221142246563
40
0.40934221142246563
40
0.40934221142246563
40
0.40934221142246563
10
16.879879062966001
20
45.795767607236201
30
-8.8817841970012523e-15
10
17.387675760198409
20
46.203586693642279
30
-8.8817841970012523e-15
10
18.478069746715654
20
47.079298335383399
30
-8.8817841970012523e-15
10
19.880539665422383
20
47.155208616265966
30
-8.8817841970012523e-15
10
20.629879062966047
20
47.195767464185053
30
-8.8817841970012523e-15
0
SPLINE
5
401
100
AcDbEntity
8
0
100
AcDbSpline
70
0
71
3
72
9
73
5
74
0
42
0.000000001
43
0.0000000001
44
0.0000000001
40
0
40
0
40
0
40
0
40
0.2187119325244031
40
0.40934268211434133
40
0.40934268211434133
40
0.40934268211434133
40
0.40934268211434133
10
24.658447330788324
20
47.195767464185074
30
-8.8817841970012523e-15
10
25.407788422337497
20
47.155208923414122
30
-8.8817841970012523e-15
10
26.810260105948075
20
47.079299293472097
30
-8.8817841970012523e-15
10
27.900655384246722
20
46.203586678115016
30
-8.8817841970012523e-15
10
28.408452099159884
20
45.795767607236264
30
-8.8817841970012523e-15
0
SPLINE
5
402
100
AcDbEntity
8
0
100
AcDbSpline
70
0
71
3
72
9
73
5
74
0
42
0.000000001
43
0.0000000001
44
0.0000000001
40
0
40
0
40
0
40
0
40
0.18764572026412013
40
0.39029791058317609
40
0.39029791058317609
40
0.39029791058317609
40
0.39029791058317609
10
28.408452099159884
20
45.795767607236264
30
-8.8817841970012523e-15
10
28.789545441220259
20
45.282618950840941
30
-8.8817841970012523e-15
10
29.582209057176797
20
44.215283931807463
30
-8.8817841970012523e-15
10
29.67000546202533
20
42.885976361909151
30
-8.8817841970012523e-15
10
29.715591495827368
20
42.195767464185167
30
-8.8817841970012523e-15
0
SPLINE
5
403
100
AcDbEntity
8
0
100
AcDbSpline
70
0
71
3
72
9
73
5
74
0
42
0.000000001
43
0.0000000001
44
0.0000000001
40
0
40
0
40
0
40
0
40
0.20265219031905599
40
0.39029791058317609
40
0.39029791058317609
40
0.39029791058317609
40
0.39029791058317609
10
29.715591495827368
20
42.195767464185167
30
-8.8817841970012523e-15
10
29.67000546202533
20
41.505558566461147
30
-8.8817841970012523e-15
10
29.582209057176797
20
40.176250996562828
30
-8.8817841970012523e-15
10
28.789545441220259
20
39.10891597752935
30
-8.8817841970012523e-15
10
28.408452099159884
20
38.595767321134041
30
-8.8817841970012523e-15
0
SPLINE
5
404
100
AcDbEntity
8
0
100
AcDbSpline
70
0
71
3
72
9
73
5
74
0
42
0.000000001
43
0.0000000001
44
0.0000000001
40
0
40
0
40
0
40
0
40
0.19063078242033407
40
0.40934270540631867
40
0.40934270540631867
40
0.40934270540631867
40
0.40934270540631867
10
28.408452099159884
20
38.595767321134041
30
-8.8817841970012523e-15
10
27.900655418371532
20
38.187947963429551
30
-8.8817841970012523e-15
10
26.810260339092459
20
37.312234833155962
30
-8.8817841970012523e-15
10
25.407788454437295
20
37.236325723102752
30
-8.8817841970012523e-15
10
24.658447330788288
20
37.195767464185167
30
-8.8817841970012523e-15
0
LINE
5
405
100
AcDbEntity
8
0
100
AcDbLine
10
24.658447330788288
20
37.195767464185167
30
-8.8817841970012523e-15
11
24.658447330788512
21
39.567194584895987
31
-8.8817841970012555e-15
0
LINE
5
406
100
AcDbEntity
8
0
100
AcDbLine
10
24.658447330788512
20
39.567194584895987
30
-8.8817841970012555e-15
11
24.344163959816608
21
39.567195477033046
31
-8.8817841970012539e-15
0
SPLINE
5
407
100
AcDbEntity
8
0
100
AcDbSpline
70
0
71
3
72
9
73
5
74
0
42
0.000000001
43
0.0000000001
44
0.0000000001
40
0
40
0
40
0
40
0
40
0.11610891501239826
40
0.21655118665032985
40
0.21655118665032985
40
0.21655118665032985
40
0.21655118665032985
10
24.344163959816608
20
39.567195477033046
30
-8.8817841970012523e-15
10
24.742055702915028
20
39.587941161285244
30
-8.8817841970012523e-15
10
25.484151424997393
20
39.626633302557991
30
-8.8817841970012523e-15
10
26.061900453990823
20
40.088625493821269
30
-8.8817841970012523e-15
10
26.329876011208214
20
40.302909912610431
30
-8.8817841970012523e-15
0
SPLINE
5
408
100
AcDbEntity
8
0
100
AcDbSpline
70
0
71
3
72
9
73
5
74
0
42
0.000000001
43
0.0000000001
44
0.0000000001
40
0
40
0
40
0
40
0
40
0.098584661077114819
40
0.20515112585256834
40
0.20515112585256834
40
0.20515112585256834
40
0.20515112585256834
10
26.329876011208214
20
40.302909912610431
30
-8.8817841970012523e-15
10
26.529793736908346
20
40.572700231568632
30
-8.8817841970012523e-15
10
26.945815317316089
20
41.134124159730298
30
-8.8817841970012523e-15
10
26.991737334998525
20
41.832824925137714
30
-8.8817841970012523e-15
10
27.015591686562225
20
42.195767464185124
30
-8.8817841970012523e-15
0
SPLINE
5
409
100
AcDbEntity
8
0
100
AcDbSpline
70
0
71
3
72
9
73
5
74
0
42
0.000000001
43
0.0000000001
44
0.0000000001
40
0
40
0
40
0
40
0
40
0.10656646477545352
40
0.20515112585256834
40
0.20515112585256834
40
0.20515112585256834
40
0.20515112585256834
10
27.015591686562225
20
42.195767464185124
30
-8.8817841970012523e-15
10
26.991737334998525
20
42.558710003232562
30
-8.8817841970012523e-15
10
26.945815317316089
20
43.257410768639978
30
-8.8817841970012523e-15
10
26.529793736908346
20
43.818834696801623
30
-8.8817841970012523e-15
10
26.329876011208214
20
44.088625015759817
30
-8.8817841970012523e-15
0
SPLINE
5
410
100
AcDbEntity
8
0
100
AcDbSpline
70
0
71
3
72
9
73
5
74
0
42
0.000000001
43
0.0000000001
44
0.0000000001
40
0
40
0
40
0
40
0
40
0.10044220614955032
40
0.21655114004593956
40
0.21655114004593956
40
0.21655114004593956
40
0.21655114004593956
10
26.329876011208214
20
44.088625015759817
30
-8.8817841970012523e-15
10
26.061900386387833
20
44.302908862072044
30
-8.8817841970012523e-15
10
25.484150959289707
20
44.764900020880802
30
-8.8817841970012523e-15
10
24.742055638237591
20
44.803593201810124
30
-8.8817841970012523e-15
10
24.344163959816608
20
44.824339451337195
30
-8.8817841970012523e-15
0
LINE
5
411
100
AcDbEntity
8
0
100
AcDbLine
10
24.344163959816612
20
44.824339451337195
30
-8.8817841970012523e-15
11
24.658447330788501
21
44.824338559200136
31
-8.8817841970012523e-15
0
LINE
5
412
100
AcDbEntity
8
0
100
AcDbLine
10
24.658447330788501
20
44.824338559200136
30
-8.8817841970012523e-15
11
24.658447330788324
21
47.195767464185074
31
-8.8817841970012523e-15
0
LWPOLYLINE
5
413
100
AcDbEntity
8
0
100
AcDbPolyline
90
24
70
1
43
0.0
10
20.231431458838564
20
-83.827946437678236
42
0.36831499542365537
10
22.755821702740846
20
-80.865887127011987
10
22.755821702740956
20
-74.902932635462989
42
-0.41421356237309825
10
32.75582170274096
20
-64.902932635463046
10
62.06404893884045
20
-64.902932635463003
42
0.19963866484302054
10
69.154847302443613
20
-61.954214686744407
42
0.41257768661637739
10
69.154847302432373
20
62.148349415819709
42
0.1996386648429502
10
62.064048938831036
20
65.0970673645365
10
32.755821702741308
20
65.097067364536358
42
-0.41421356237309076
10
22.755821702741347
20
75.097067364536315
10
22.755821702741361
20
81.060021856075352
42
0.36831499542364132
10
20.231431458839086
20
84.022081166741586
42
0.21268551646684938
10
-46.628324638726355
20
66.241854909682743
42
0.22670666257562938
10
-47.744178297263431
20
63.907332996324023
10
-47.744178297263637
20
53.597067364530993
42
-0.41421356237309853
10
-62.744178297263637
20
38.597067364531064
10
-67.161361685160571
20
38.597067364531064
42
0.28838254603412089
10
-69.865648882278791
20
36.895847852335926
42
0.22768497498881562
10
-69.865648882278776
20
-36.701713123273713
42
0.28838254603405267
10
-67.161361685160898
20
-38.402932635468147
10
-62.744178297263666
20
-38.402932635467941
42
-0.41421356237309492
10
-47.74417829726368
20
-53.402932635468041
10
-47.744178297263815
20
-63.713198267261113
42
0.22670666257555683
10
-46.628324638727257
20
-66.047720180619379
42
0.21268551646685024
0
ENDSEC
0
SECTION
2
OBJECTS
0
DICTIONARY
5
C
100
AcDbDictionary
3
ACAD_GROUP
350
D
3
ACAD_MLINESTYLE
350
17
0
DICTIONARY
5
D
100
AcDbDictionary
0
DICTIONARY
5
1A
330
C
100
AcDbDictionary
0
DICTIONARY
5
17
100
AcDbDictionary
0
ENDSEC
0
EOF
